<svg width="116" height="21" viewBox="0 0 116 21" fill="none" xmlns="http://www.w3.org/2000/svg">
<path d="M14.55 -1.43051e-06L26.25 21H23.22L13.11 2.85L3.03 21H4.47035e-08L11.7 -1.43051e-06H14.55ZM27.4559 21V11.82H46.4759C47.1159 11.82 47.7159 11.7 48.2759 11.46C48.8359 11.22 49.3159 10.89 49.7159 10.47C50.1359 10.05 50.4659 9.56 50.7059 9C50.9459 8.44 51.0659 7.84 51.0659 7.2C51.0659 6.56 50.9459 5.97 50.7059 5.43C50.4659 4.87 50.1359 4.38 49.7159 3.96C49.3159 3.54 48.8359 3.21 48.2759 2.97C47.7159 2.73 47.1159 2.61 46.4759 2.61H27.4559V-1.43051e-06H46.4759C47.4759 -1.43051e-06 48.4159 0.189999 49.2959 0.569998C50.1759 0.949998 50.9359 1.47 51.5759 2.13C52.2359 2.77 52.7559 3.53 53.1359 4.41C53.5159 5.27 53.7059 6.2 53.7059 7.2C53.7059 8.2 53.5159 9.14 53.1359 10.02C52.7559 10.9 52.2359 11.67 51.5759 12.33C50.9359 12.97 50.1759 13.48 49.2959 13.86C48.4159 14.24 47.4759 14.43 46.4759 14.43H44.5859L53.7059 21H49.2959L40.1459 14.43H30.0959V21H27.4559ZM56.6402 -1.43051e-06H59.2802V21H56.6402V-1.43051e-06ZM63.2367 -1.43051e-06H65.8767V15.09C65.8767 15.53 65.9567 15.95 66.1167 16.35C66.2967 16.75 66.5367 17.1 66.8367 17.4C67.1367 17.7 67.4867 17.94 67.8867 18.12C68.2867 18.28 68.7067 18.36 69.1467 18.36H83.5767C84.0367 18.36 84.4667 18.28 84.8667 18.12C85.2667 17.94 85.6167 17.7 85.9167 17.4C86.2167 17.1 86.4467 16.75 86.6067 16.35C86.7867 15.95 86.8767 15.53 86.8767 15.09V-1.43051e-06H89.4867V15.09C89.4867 15.91 89.3267 16.68 89.0067 17.4C88.7067 18.12 88.2867 18.75 87.7467 19.29C87.2267 19.81 86.6067 20.23 85.8867 20.55C85.1667 20.85 84.3967 21 83.5767 21H69.1467C68.3267 21 67.5567 20.85 66.8367 20.55C66.1167 20.23 65.4867 19.81 64.9467 19.29C64.4267 18.75 64.0067 18.12 63.6867 17.4C63.3867 16.68 63.2367 15.91 63.2367 15.09V-1.43051e-06ZM95.4014 -1.43051e-06H113.101L112.471 2.61H95.4014C94.9614 2.61 94.5414 2.7 94.1414 2.88C93.7414 3.04 93.3914 3.27 93.0914 3.57C92.7914 3.87 92.5514 4.22 92.3714 4.62C92.1914 5.02 92.1014 5.45 92.1014 5.91C92.1014 6.35 92.1914 6.77 92.3714 7.17C92.5514 7.57 92.7914 7.92 93.0914 8.22C93.3914 8.52 93.7414 8.76 94.1414 8.94C94.5414 9.1 94.9614 9.18 95.4014 9.18H109.831C110.651 9.18 111.421 9.34 112.141 9.66C112.861 9.96 113.481 10.38 114.001 10.92C114.541 11.44 114.961 12.06 115.261 12.78C115.581 13.5 115.741 14.27 115.741 15.09C115.741 15.91 115.581 16.68 115.261 17.4C114.961 18.12 114.541 18.75 114.001 19.29C113.481 19.81 112.861 20.23 112.141 20.55C111.421 20.85 110.651 21 109.831 21H92.1014L92.7614 18.36H109.831C110.291 18.36 110.711 18.28 111.091 18.12C111.491 17.94 111.841 17.7 112.141 17.4C112.441 17.1 112.671 16.75 112.831 16.35C113.011 15.95 113.101 15.53 113.101 15.09C113.101 14.63 113.011 14.2 112.831 13.8C112.671 13.4 112.441 13.05 112.141 12.75C111.841 12.45 111.491 12.22 111.091 12.06C110.711 11.88 110.291 11.79 109.831 11.79H95.4014C94.5814 11.79 93.8114 11.64 93.0914 11.34C92.3714 11.02 91.7414 10.6 91.2014 10.08C90.6814 9.54 90.2614 8.91 89.9414 8.19C89.6414 7.47 89.4914 6.71 89.4914 5.91C89.4914 5.09 89.6414 4.32 89.9414 3.6C90.2614 2.88 90.6814 2.26 91.2014 1.74C91.7414 1.2 92.3714 0.779999 93.0914 0.48C93.8114 0.159999 94.5814 -1.43051e-06 95.4014 -1.43051e-06Z" fill="black"/>
</svg>
