<svg width="1545" height="1052" viewBox="0 0 1545 1052" fill="none" xmlns="http://www.w3.org/2000/svg">
<path d="M127.4 774.099C195.4 740.399 273.6 753.799 345.1 766.499C383.2 773.299 421.2 779.599 459.8 782.799C501.1 786.299 542.6 786.999 584 784.999C664.1 780.999 742.8 765.199 821.8 752.099C900.8 739.099 981.4 728.899 1061.4 738.399C1139.3 747.699 1215.3 780.599 1294.7 773.999C1303.6 773.299 1312.4 771.999 1321.2 770.199C1323.1 769.799 1322.3 766.899 1320.4 767.299C1240.5 783.499 1162 751.499 1084.1 738.599C1006.1 725.699 926.8 732.799 849.2 744.699C768.6 756.999 688.7 774.399 607.3 780.499C525.2 786.599 443.5 780.799 362.5 766.499C293.2 754.199 218.4 737.999 149.6 761.499C141.5 764.299 133.6 767.599 125.9 771.399C124.2 772.399 125.7 774.999 127.4 774.099Z" fill="#E8E8E8"/>
<path d="M1068.1 905.8C1064.4 898 1043.2 847.6 1062.5 848.8C1063.6 848.9 1064.1 847.8 1063.9 846.9C1061.4 831.3 1061.7 815.3 1064.9 799.7C1066.4 792.5 1068.5 785.5 1071.2 778.7C1073.6 772.6 1079.3 755.3 1088.5 763.4C1094.1 768.4 1093.5 779.2 1094.1 786C1094.7 794 1095 802 1095 810.1C1094.9 826.3 1093.5 842.5 1090.8 858.5C1089.3 867 1087.5 875.5 1085.3 883.8C1084.1 888.3 1082.8 892.7 1081.5 897.1C1080.2 901.1 1079.2 907.2 1074.6 908.7C1072.8 909.3 1073.6 912.2 1075.4 911.6C1081.8 909.4 1083.2 901.8 1084.9 896.1C1087.8 886.7 1090.2 877.1 1092.2 867.4C1096 848.2 1098 828.6 1098 809C1098 798.8 1097.5 788.6 1096.5 778.5C1095.8 772.1 1095.3 764.3 1089.5 760.2C1075.6 750.4 1068.2 777.3 1065.5 786C1059.2 805.9 1057.8 826.9 1061.1 847.5C1061.6 846.9 1062.1 846.2 1062.5 845.6C1050.5 844.9 1050.8 859.2 1052.3 867.2C1054.9 881 1059.4 894.4 1065.5 907.1C1066.4 909.1 1068.9 907.5 1068.1 905.8Z" fill="#E8E8E8"/>
<path d="M1098.3 823.499C1098 816.699 1098.7 809.899 1100.6 803.399C1101.5 800.199 1102.7 797.099 1104.1 793.999C1104.8 792.599 1105.5 791.199 1106.3 789.899C1106.8 789.199 1107.4 788.599 1107.9 787.899C1110.9 784.899 1113.4 785.399 1115.3 789.499C1115 791.399 1117.6 792.199 1118.2 790.299C1120.2 783.699 1124.1 775.499 1132.1 775.099C1140.6 774.699 1142.9 783.299 1143.2 790.099C1143.9 803.199 1141.6 816.599 1138.2 829.199C1131.2 854.899 1118.3 878.599 1105.5 901.899C1104.6 903.599 1107.2 905.099 1108.1 903.399C1124 874.399 1140.4 844.299 1145 811.199C1146 803.799 1146.7 796.199 1146.1 788.699C1145.7 783.499 1144.3 777.699 1139.9 774.399C1135.7 771.299 1130 771.599 1125.6 773.999C1119.9 777.199 1117 783.399 1115.2 789.399C1116.2 789.699 1117.1 789.899 1118.1 790.199C1118.6 786.799 1116.7 783.899 1113.2 783.099C1109.4 782.199 1106.1 784.699 1104 787.699C1096.9 797.599 1094.7 811.599 1095.2 823.399C1095.3 825.399 1098.3 825.399 1098.3 823.499Z" fill="#E8E8E8"/>
<path d="M1027.7 954.3C1070.7 930.8 1121.7 932.3 1168.8 939.1C1220.1 946.5 1271.7 960.1 1323.8 953.6C1352.7 950 1382 940.1 1411.2 947C1413.1 947.4 1413.9 944.6 1412 944.1C1386.7 938.1 1361.3 944.4 1336.3 948.7C1309.2 953.3 1282 952.9 1254.7 949.6C1203.5 943.5 1153 929.3 1101 932C1075 933.3 1049.2 939.1 1026.2 951.6C1024.5 952.6 1026 955.2 1027.7 954.3Z" fill="#E8E8E8"/>
<path d="M1159.4 885.4C1197.7 888.9 1234.9 877.7 1271.9 869.3C1291.4 864.9 1311.2 861.1 1331.2 860.9C1352.1 860.6 1372.6 864.8 1393.1 868.3C1414.9 872.1 1436.9 874.9 1458.9 870.8C1460.8 870.4 1460 867.6 1458.1 867.9C1417.2 875.5 1377.2 858.5 1336.5 857.8C1298.4 857.2 1261.7 869.4 1224.8 877.1C1203.3 881.6 1181.5 884.4 1159.5 882.4C1157.5 882.3 1157.5 885.3 1159.4 885.4Z" fill="#E8E8E8"/>
<path d="M270.4 752.5C266.9 748.7 263.8 744.4 261.5 739.7C260.4 737.4 259.4 735.1 258.7 732.6C258.1 730.7 257.5 728.7 257.9 726.8C258.3 724.6 260.7 719.7 264.2 722.9C265.3 723.9 267.1 722.9 266.7 721.4C261.2 701.6 259.9 681.5 258.5 661.1C257.1 640.8 255.6 620 259.6 599.9C260.6 595.1 261.3 588.1 266.7 586.4C273.4 584.2 278.1 591.3 280 596.6C283.4 605.8 285.5 615.8 287.7 625.4C292.4 645.8 295.6 666.5 297.5 687.3C299.5 710.2 299.8 733.2 298.5 756.1C298.4 758 301.4 758 301.5 756.1C304.2 709.5 300 662.5 288.8 617.2C287.4 611.6 286 606.1 284.4 600.6C283.1 596.2 281.7 591.7 278.8 588.2C274.9 583.6 267.5 581.1 262.4 585.3C259.4 587.8 258.4 592 257.6 595.6C256.4 600.9 255.5 606.2 255 611.6C253.8 623.1 254 634.7 254.6 646.3C256 671.8 257.1 697.7 263.9 722.4C264.7 721.9 265.6 721.4 266.4 720.9C260.9 715.8 254.6 722.3 254.9 728.3C255.3 738 262.1 747.9 268.4 754.7C269.6 756.1 271.7 754 270.4 752.5Z" fill="#E8E8E8"/>
<path d="M299.7 666.1C295.6 656.6 297.9 646.4 300.4 636.8C302.6 628.1 304.8 619.6 304.8 610.6C304.9 600.4 304.2 590.5 306.8 580.5C308 575.9 309.7 571.5 311.8 567.2C312.7 565.4 313.8 562.5 315.3 561.2C319.8 557.2 322.1 564.6 323.1 567.4C329.9 586.1 331.1 606.3 331.4 626C331.8 646.7 331.2 667.4 329.7 688C328 711.7 325 735.3 320.9 758.8C320.6 760.7 323.5 761.5 323.8 759.6C332.1 712.6 335.9 664.6 334.1 617C333.7 606 332.8 594.9 330.6 584.1C329.6 578.8 328.2 573.5 326.5 568.4C325.3 564.9 324.1 560.1 320.9 557.8C313.9 552.7 309.2 565.2 307.3 569.7C303.4 578.8 301.5 588.5 301.5 598.4C301.5 605 302 611.6 301.3 618.2C300.6 624.6 298.7 630.7 297.2 636.9C294.6 647.2 292.7 657.6 297 667.7C297.9 669.3 300.5 667.8 299.7 666.1Z" fill="#E8E8E8"/>
<path d="M164.1 532.8C221.1 490.3 279.3 447.5 345.4 419.9C378 406.3 412.5 396.8 447.8 394C486.8 390.9 526 396.1 563.8 405.9C641 426.1 711.1 465.1 784.1 496.1C854.8 526.2 928.9 545.9 1004.5 558.8C1080.2 571.7 1156.8 578.4 1233.3 584.3C1242.8 585 1252.3 585.8 1261.8 586.5C1263.7 586.6 1263.7 583.6 1261.8 583.5C1183.5 577.6 1105.1 571.6 1027.5 559.5C950.8 547.6 874.7 529.7 802.6 500.6C729.4 471.1 660.2 431.8 584.5 408.7C547.7 397.5 509.5 390.1 470.9 390.1C435.4 390.1 400.3 396.9 366.9 408.5C299.8 431.9 240.4 472.8 183.6 514.6C176.6 519.8 169.6 525 162.6 530.2C161 531.4 162.5 534 164.1 532.8Z" fill="#E8E8E8"/>
<path d="M1026.9 557C1088.2 558.3 1147.4 540.5 1206.2 525.5C1236.4 517.8 1266.8 510.7 1297.8 507.4C1328.7 504 1359.9 504.8 1390.5 510.6C1425.1 517.1 1458.4 529.7 1488.7 547.5C1490.4 548.5 1491.9 545.9 1490.2 544.9C1437.3 513.9 1375.7 499.1 1314.5 503C1252.1 506.9 1192.6 527.4 1132 541.2C1097.5 549.1 1062.3 554.8 1026.8 554.1C1025 554 1025 557 1026.9 557Z" fill="#E8E8E8"/>
<path d="M1345.1 764.799C1387.9 758.299 1431.6 758.099 1474.5 764.399C1476.4 764.699 1477.2 761.799 1475.3 761.499C1431.8 755.199 1387.8 755.399 1344.3 761.899C1342.4 762.199 1343.2 764.999 1345.1 764.799Z" fill="#E8E8E8"/>
<path d="M28.3001 673.1C60.6001 633.9 95.6001 596.9 133 562.6C134.4 561.3 132.3 559.2 130.9 560.5C93.4001 594.8 58.4001 631.7 26.2001 671C25.0001 672.5 27.1001 674.6 28.3001 673.1Z" fill="#E8E8E8"/>
<path d="M1190.3 128.1C1176.8 132.8 1166.2 121.5 1159.6 111.2C1153.1 101.2 1148.4 90.2995 1148.4 78.0995C1148.5 55.1995 1163.8 35.0995 1185 27.0995C1204.6 19.7995 1228.5 23.6995 1243.7 38.4995C1259.4 53.7995 1263.4 77.5995 1253.5 96.9995C1250.7 102.5 1247.1 107.7 1243.5 112.7C1241.4 115.6 1239.4 118.8 1236.5 121.1C1233.1 123.7 1229.3 124.2 1225.2 124.7C1211.2 126.4 1197.1 127.9 1183 129.5C1181.1 129.7 1181.1 132.7 1183 132.5C1198.2 130.8 1213.7 129.7 1228.8 127.3C1241.1 125.3 1247.7 112.9 1253.5 103C1265.3 82.8995 1264.4 58.3995 1249.2 40.1995C1234.1 22.0995 1207.5 16.1995 1185.5 23.6995C1163.4 31.2995 1146.9 51.1995 1145.4 74.7995C1144.5 89.6995 1150.4 103.4 1158.7 115.4C1165.9 125.8 1177.4 135.6 1190.9 130.9C1192.9 130.4 1192.1 127.5 1190.3 128.1Z" fill="#E8E8E8"/>
<path d="M276.8 165.699C272.6 155.399 283.6 146.999 292.9 146.299C302.8 145.599 312.3 149.799 321.9 151.599C340 155.099 358.6 153.699 376.1 147.899C392.9 142.299 409.3 133.099 427.4 132.699C446 132.399 462.6 143.399 481.4 141.099C490.5 139.999 499.3 137.099 508.5 136.399C517 135.699 529.8 137.299 532.8 146.999C535.8 156.699 522.2 164.799 515 168.299C507 172.199 498.1 174.299 489.3 174.399C479.9 174.399 471.5 171.599 462.7 168.699C454.6 165.999 446.6 164.399 438.1 164.599C421.9 164.899 406.3 170.099 390.8 174.399C381.2 177.099 371.4 179.599 361.4 180.399C351.1 181.199 341.7 179.399 331.8 176.999C322 174.599 313.4 175.499 303.5 176.899C297.6 177.699 291.4 178.199 285.9 175.299C281 172.699 277 168.099 278.2 162.199C278.6 160.299 275.7 159.499 275.3 161.399C273.8 168.299 277.8 174.099 283.8 177.499C291.9 182.099 300.9 180.199 309.7 178.899C315.8 177.999 321.5 177.799 327.6 178.999C333 180.099 338.3 181.899 343.8 182.799C352.4 184.199 361.1 183.699 369.7 182.399C389.3 179.199 407.8 171.299 427.4 168.499C437.9 166.999 448.3 167.399 458.5 170.499C468 173.399 477 177.099 487 177.399C503.1 177.999 524.2 171.599 533.6 157.599C537.8 151.299 536.5 143.999 530.8 139.199C524.5 133.699 515.7 132.799 507.7 133.599C497.4 134.599 487.5 138.099 477.2 138.599C465.7 139.199 455.1 134.799 444.1 131.999C423.6 126.799 405.6 133.499 386.6 140.899C375 145.399 363.4 149.099 350.9 150.199C337.3 151.399 324.3 149.399 311.1 145.999C301.7 143.599 290.9 141.099 282.1 146.599C275.4 150.799 270.8 158.699 273.9 166.499C274.6 168.199 277.5 167.499 276.8 165.699Z" fill="#E8E8E8"/>
<path d="M1112.9 330.8C1127.3 316.8 1148.2 317 1167 318.8C1189 320.9 1210.3 323.7 1232.5 321.3C1243.9 320 1255 317.6 1266.1 314.7C1277.7 311.7 1289.6 308.5 1301.8 308.9C1314.1 309.3 1325.6 314.2 1337.7 315.9C1348.7 317.4 1359.8 316.1 1370.7 314C1380.5 312.2 1390.2 309.2 1400.3 309.7C1409.2 310.1 1420.1 314.6 1419.3 325.4C1418.5 335.5 1407.1 342.5 1398 344C1386.4 345.8 1374.6 341.6 1363.1 340.7C1341.5 339 1325.2 353.5 1304.7 357.2C1283.1 361.1 1262.8 349.2 1242.3 344.8C1217.1 339.5 1193.2 350.5 1168.6 354.5C1156.3 356.5 1142 359.2 1129.6 356.7C1123.5 355.4 1117.7 352.4 1114.7 346.7C1112 341.4 1111.9 335 1116.4 330.7C1117.8 329.4 1115.7 327.2 1114.3 328.6C1108.5 334.1 1108.8 342.8 1112.8 349.4C1117.6 357.3 1126.8 360 1135.5 360.5C1161.1 362 1186.1 353.3 1210.7 348.1C1224.4 345.2 1237 346.2 1250.4 350C1261.6 353.2 1272.4 357.6 1283.9 359.7C1294.8 361.7 1305.3 361.1 1315.7 357.3C1326.6 353.4 1336.8 347.3 1348.2 344.7C1369.8 339.8 1394.1 355.7 1413.5 340.5C1420 335.4 1424.5 327.2 1421.4 319C1418.7 311.9 1411.8 308.4 1404.7 307.4C1395.5 306 1386.6 308 1377.6 309.9C1363.3 312.9 1348.7 315.3 1334.1 312.5C1321.5 310.1 1309.6 305.6 1296.5 306.2C1284.1 306.8 1272.1 310.4 1260.1 313.4C1244.9 317.2 1229.4 319.4 1213.7 319.7C1200.1 319.9 1186.7 318.2 1173.2 316.7C1151.9 314.3 1127.6 312.8 1111 328.9C1109.4 330 1111.5 332.1 1112.9 330.8Z" fill="#E8E8E8"/>
<path d="M461.6 1010.7C457.1 1006.6 453.2 1002 450 996.8C448.5 994.4 447.1 991.8 446 989.2C445.4 987.7 444.4 985.5 444.6 983.8C444.9 980.9 447.7 976.5 451.1 979.2C452.4 980.3 454.3 979 453.5 977.4C449.7 970 447.4 961.5 447.8 953.1C447.9 951.5 448.1 950 448.7 948.5C449.2 947.2 449.9 946 450.8 944.9C452.6 943.1 454.2 943.1 455.6 945.1C459.3 947.8 460.8 953 462.5 957.1C468.6 971.7 473.1 986.9 476.2 1002.4C477.2 1002.1 478.1 1001.9 479.1 1001.6C476.4 994.1 474.3 986.4 473 978.5C472.1 972.9 470.5 954.3 482 960.5C489.4 964.5 490.8 976.4 490.8 983.9C490.9 992.2 489.3 1000.3 487.7 1008.4C487.3 1010.3 490.2 1011.1 490.6 1009.2C492.6 998.9 494.7 988.2 493.4 977.6C492.4 969.9 489 957.6 479.7 956.4C472.3 955.5 469.3 963 469.1 969.1C468.7 980.2 472.5 992.2 476.2 1002.5C476.9 1004.3 479.5 1003.6 479.1 1001.7C476.8 990.1 473.6 978.6 469.6 967.5C467.8 962.5 465.9 957.6 463.7 952.7C462.1 949 460.5 943.7 456.6 941.6C450.4 938.2 446 945.1 445 950.3C443.2 959.8 446.5 970.7 450.7 979.1L453.1 977.3C447 972.2 440.8 979.5 441.7 985.9C443.2 996.1 452.2 1006.2 459.4 1013C460.9 1014.1 463 1012 461.6 1010.7Z" fill="#E8E8E8"/>
<path d="M341.2 257.999C363.4 253.499 386 248.999 408.8 250.999C430.7 252.899 451.4 260.699 472.6 266.099C514 276.499 556.9 280.199 599.5 280.099C623.9 279.999 648.2 278.799 672.5 276.799C674.4 276.599 674.4 273.599 672.5 273.799C629.1 277.199 585.3 278.599 541.8 274.599C519.7 272.599 497.7 269.099 476.1 263.899C455.5 258.899 435.5 251.399 414.4 248.699C389.5 245.499 364.7 250.299 340.4 255.199C338.5 255.499 339.3 258.399 341.2 257.999Z" fill="#E8E8E8"/>
<path d="M575.2 258.199C648.6 254.399 719.9 229.399 793.9 233.999C795.8 234.099 795.8 231.099 793.9 230.999C720 226.399 648.6 251.499 575.2 255.199C573.2 255.299 573.2 258.299 575.2 258.199Z" fill="#E8E8E8"/>
<path d="M1179.1 757.399C1176.2 750.099 1174.7 742.399 1174.8 734.499C1174.8 730.499 1175.3 726.499 1176.2 722.599C1177 718.999 1181 709.699 1185.6 715.599C1186.4 716.599 1188.3 715.799 1188.2 714.499C1187.2 705.899 1187.4 697.299 1189 688.799C1189.7 685.099 1190.7 681.399 1192 677.799C1192.8 675.599 1193.6 673.199 1194.7 671.099C1196.3 668.099 1198.1 667.299 1201.1 665.799C1206.5 663.299 1206.6 656.799 1207.9 651.599C1209.7 644.499 1211.8 637.299 1215.9 631.199C1218.3 627.599 1222.8 621.799 1227.7 623.099C1231.6 624.099 1233 628.299 1233.7 631.899C1235.3 639.799 1234.2 648.599 1233.8 656.599C1232.9 674.299 1230.6 691.999 1227 709.299C1223 728.299 1217.3 746.899 1210.2 764.999C1209.5 766.799 1212.4 767.599 1213.1 765.799C1227.9 728.399 1236.2 688.499 1237.2 648.199C1237.4 640.399 1238.4 614.399 1223 620.399C1216.5 622.999 1212.1 630.899 1209.5 636.999C1208 640.499 1206.9 644.099 1205.9 647.699C1204.4 653.199 1204.4 659.999 1199.1 663.199C1196 665.099 1194 665.899 1192.2 669.499C1190.1 673.599 1188.6 678.299 1187.4 682.799C1184.7 693.099 1184 703.799 1185.3 714.399C1186.2 713.999 1187 713.699 1187.9 713.299C1185.9 710.799 1182.6 710.199 1179.7 711.499C1175.8 713.299 1174.4 717.799 1173.5 721.599C1170.7 733.699 1171.9 746.399 1176.4 757.999C1176.9 759.999 1179.8 759.199 1179.1 757.399Z" fill="#E8E8E8"/>
<path d="M1150.7 752.2C1146.4 745.5 1142.2 738.5 1140 730.7C1139 727.1 1138.4 723.4 1138.6 719.7C1138.9 715.6 1140.6 712.4 1142 708.6C1144.2 702.5 1140.7 696.7 1139.3 690.8C1138.6 688 1134.5 663.1 1143.3 666.5C1144.4 666.9 1145.4 665.7 1145.1 664.7C1142.2 651.8 1139.2 638.1 1143.3 625.2C1145.1 619.5 1152.4 604.7 1159.9 611.5C1164.5 615.7 1167.1 623.5 1169.2 629.1C1178.4 654.4 1182.4 682.5 1184.2 709.3C1184.3 711.2 1187.3 711.2 1187.2 709.3C1186 691.8 1183.6 674.4 1179.9 657.3C1176.7 642.3 1173.2 625.6 1164.5 612.6C1161.8 608.6 1157.9 605.2 1152.8 607.3C1147.4 609.5 1143.7 616.1 1141.6 621.1C1135.7 635.4 1139 651 1142.2 665.6C1142.8 665 1143.4 664.4 1144 663.8C1138.7 661.7 1135.5 667.7 1134.7 672.2C1133.1 682.2 1136.8 691.5 1139.1 701C1140.5 706.8 1137 710.9 1136 716.3C1135.2 720.1 1135.4 723.9 1136.1 727.7C1137.8 737.2 1143 745.9 1148.1 754C1149.1 755.3 1151.7 753.8 1150.7 752.2Z" fill="#E8E8E8"/>
<path d="M1231 701.899C1233.7 692.599 1236.5 683.299 1242.2 675.399C1247.7 667.799 1254.1 660.599 1260.2 653.499C1263.4 649.899 1266.6 646.299 1270.1 642.999C1271.9 641.299 1273.7 639.499 1276 638.299C1280.5 635.899 1283.5 638.999 1284.7 643.099C1287.4 652.499 1285.2 662.699 1282.8 671.999C1273.6 707.199 1257.6 740.499 1236.2 769.999C1235.1 771.599 1237.7 773.099 1238.8 771.499C1258.5 744.399 1273.5 714.099 1283.1 681.999C1285.4 674.299 1287.7 666.399 1288.5 658.399C1289.2 651.899 1289.4 642.899 1285.5 637.299C1277.3 625.699 1260.3 648.799 1255.8 654.099C1250 660.899 1243.8 667.699 1238.7 675.099C1233.4 682.899 1230.7 691.999 1228.1 700.999C1227.5 702.899 1230.4 703.699 1231 701.899Z" fill="#E8E8E8"/>
<path d="M1225.2 624.3C1221.4 670.9 1211.4 716.7 1195.5 760.6C1194.8 762.4 1197.7 763.2 1198.4 761.4C1214.4 717.2 1224.4 671.1 1228.2 624.3C1228.3 622.4 1225.3 622.4 1225.2 624.3Z" fill="#E8E8E8"/>
<path d="M1198 664.599C1203.4 684.899 1206.2 705.599 1206.4 726.599C1206.4 728.499 1209.4 728.499 1209.4 726.599C1209.2 705.399 1206.4 684.299 1200.9 663.799C1200.4 661.899 1197.5 662.699 1198 664.599Z" fill="#E8E8E8"/>
<path d="M1211.6 641.9C1215.1 655.7 1216.8 669.8 1216.9 684C1216.9 685.9 1219.9 685.9 1219.9 684C1219.8 669.5 1218 655.1 1214.5 641.1C1214 639.2 1211.1 640 1211.6 641.9Z" fill="#E8E8E8"/>
<path d="M1203.1 749.8C1210.8 743.8 1217.7 736.9 1223.7 729.3C1224.9 727.8 1222.8 725.7 1221.6 727.2C1215.5 734.9 1208.7 741.7 1201 747.7C1199.5 748.9 1201.6 751 1203.1 749.8Z" fill="#E8E8E8"/>
<path d="M1151 609.9C1159.7 646.2 1166.5 682.9 1171.2 719.9C1171.4 721.8 1174.4 721.8 1174.2 719.9C1169.4 682.6 1162.6 645.6 1153.9 609.1C1153.5 607.2 1150.6 608 1151 609.9Z" fill="#E8E8E8"/>
<path d="M1139.1 644.299C1147.9 649.599 1155.4 656.399 1161.4 664.799C1162.5 666.399 1165.1 664.899 1164 663.299C1157.7 654.499 1149.9 647.299 1140.7 641.799C1138.9 640.699 1137.4 643.299 1139.1 644.299Z" fill="#E8E8E8"/>
<path d="M1177.4 665.199C1173.8 674.199 1170.9 683.399 1168.7 692.899C1168.3 694.799 1171.1 695.599 1171.6 693.699C1173.8 684.299 1176.7 674.999 1180.3 665.999C1181 664.199 1178.1 663.399 1177.4 665.199Z" fill="#E8E8E8"/>
<path d="M1138.9 710.599C1149.9 713.699 1160.6 717.299 1171.2 721.499C1173 722.199 1173.8 719.299 1172 718.599C1161.4 714.399 1150.6 710.799 1139.7 707.699C1137.8 707.199 1137 710.099 1138.9 710.599Z" fill="#E8E8E8"/>
<path d="M1279.8 639.2C1266.5 685.5 1229.7 721 1217.9 767.9C1217.4 769.8 1220.3 770.6 1220.8 768.7C1232.6 721.8 1269.4 686.3 1282.7 640C1283.3 638.1 1280.4 637.3 1279.8 639.2Z" fill="#E8E8E8"/>
<path d="M1253 658.7C1250.5 674.9 1247.9 691.1 1245.4 707.3C1245.1 709.2 1248 710 1248.3 708.1C1250.8 691.9 1253.4 675.7 1255.9 659.5C1256.2 657.6 1253.3 656.8 1253 658.7Z" fill="#E8E8E8"/>
<path d="M1256 694.299C1264.9 687.899 1274.2 682.099 1283.9 676.799C1285.6 675.899 1284.1 673.299 1282.4 674.199C1272.7 679.399 1263.4 685.199 1254.5 691.699C1252.9 692.899 1254.4 695.499 1256 694.299Z" fill="#E8E8E8"/>
<path d="M1227.3 752.3C1236.4 741.6 1249.4 736.2 1262.2 731.1C1264 730.4 1263.2 727.5 1261.4 728.2C1248.2 733.5 1234.7 739.1 1225.2 750.2C1223.9 751.7 1226 753.8 1227.3 752.3Z" fill="#E8E8E8"/>
<path d="M1082 761.8C1085.7 785.2 1082.6 808.7 1079.1 832C1075.7 854.9 1072.3 877.9 1068.9 900.8C1068.6 902.7 1071.5 903.5 1071.8 901.6C1075.4 877.4 1079.1 853.2 1082.6 829C1085.9 806.5 1088.5 783.7 1084.9 761.1C1084.5 759.1 1081.7 759.9 1082 761.8Z" fill="#E8E8E8"/>
<path d="M1062.5 804.499C1065.9 818.499 1070.5 832.099 1076.3 845.299C1077.1 847.099 1079.7 845.499 1078.9 843.799C1073.3 830.799 1068.8 817.499 1065.4 803.699C1064.9 801.899 1062 802.699 1062.5 804.499Z" fill="#E8E8E8"/>
<path d="M1092.6 776.1C1091.2 785.2 1087.9 793.5 1082.7 801C1081.6 802.6 1084.2 804.1 1085.3 802.5C1090.6 794.8 1094.1 786.1 1095.5 776.8C1095.7 775 1092.8 774.2 1092.6 776.1Z" fill="#E8E8E8"/>
<path d="M1133.9 777.6C1121.6 820.3 1105.9 861.9 1087.1 902.2C1086.3 903.9 1088.9 905.5 1089.7 903.7C1108.6 863.2 1124.4 821.3 1136.8 778.4C1137.3 776.6 1134.4 775.8 1133.9 777.6Z" fill="#E8E8E8"/>
<path d="M1126 775.8C1125.6 785.5 1125.3 795.1 1124.9 804.8C1124.8 806.7 1127.8 806.7 1127.9 804.8C1128.3 795.1 1128.6 785.5 1129 775.8C1129.1 773.9 1126.1 773.9 1126 775.8Z" fill="#E8E8E8"/>
<path d="M1103.8 788.799C1098.4 811.399 1103.8 834.999 1107 857.599C1107.3 859.499 1110.2 858.699 1109.9 856.799C1106.8 834.799 1101.5 811.699 1106.7 789.599C1107.2 787.699 1104.3 786.899 1103.8 788.799Z" fill="#E8E8E8"/>
<path d="M1099.4 880.899C1109.1 878.499 1118.1 874.399 1126.2 868.599C1127.8 867.499 1126.3 864.899 1124.7 865.999C1116.8 871.599 1108.1 875.599 1098.6 877.999C1096.7 878.399 1097.5 881.299 1099.4 880.899Z" fill="#E8E8E8"/>
<path d="M265.9 587.7C276 642.3 282.3 697.6 284.6 753C284.7 754.9 287.7 754.9 287.6 753C285.3 697.2 279 641.7 268.8 586.9C268.4 585 265.5 585.8 265.9 587.7Z" fill="#E8E8E8"/>
<path d="M255 651.099C265.6 664.399 274.1 679.099 280.3 694.899C281 696.699 283.9 695.899 283.2 694.099C276.8 677.799 268.1 662.699 257.2 648.999C256 647.499 253.8 649.599 255 651.099Z" fill="#E8E8E8"/>
<path d="M285 614.4C281.4 629.3 278.7 644.4 276.8 659.6C276.6 661.5 279.6 661.5 279.8 659.6C281.6 644.7 284.3 629.9 287.9 615.2C288.3 613.3 285.4 612.5 285 614.4Z" fill="#E8E8E8"/>
<path d="M316.4 560.699C318.2 625.999 315 691.299 306.8 756.099C306.6 757.999 309.6 757.999 309.8 756.099C318 691.299 321.2 625.999 319.4 560.699C319.3 558.799 316.3 558.799 316.4 560.699Z" fill="#E8E8E8"/>
<path d="M299.6 629.399C306.8 646.499 311.8 664.399 314.5 682.799C314.8 684.699 317.7 683.899 317.4 681.999C314.7 663.599 309.7 645.699 302.5 628.599C301.7 626.899 298.8 627.599 299.6 629.399Z" fill="#E8E8E8"/>
<path d="M311.1 742.499C315.4 734.099 321.1 726.799 328.1 720.499C329.5 719.199 327.4 717.099 326 718.399C318.8 724.799 312.9 732.399 308.5 740.999C307.6 742.699 310.2 744.199 311.1 742.499Z" fill="#E8E8E8"/>
<path d="M306.8 571.799C309.4 580.099 312.3 588.199 315.5 596.299C316.2 598.099 319.1 597.299 318.4 595.499C315.1 587.499 312.2 579.299 309.7 570.999C309.1 569.099 306.2 569.899 306.8 571.799Z" fill="#E8E8E8"/>
<path d="M92.0003 965.799C157.6 959.399 224 961.399 289 971.999C307.3 974.999 325.6 978.699 343.7 982.999C345.6 983.399 346.4 980.599 344.5 980.099C280.4 964.799 214.5 957.799 148.6 959.299C129.7 959.799 110.8 960.899 92.0003 962.799C90.1003 962.899 90.0003 965.899 92.0003 965.799Z" fill="#E8E8E8"/>
<path d="M680 994.5C680.1 990.2 690.8 989.4 693.4 989.7C697.8 990.1 702 992.4 704.4 996.1C712.3 1008.3 696.3 1013.2 687.1 1010.2C685.3 1009.6 684.5 1012.5 686.3 1013.1C692.7 1015.3 701.2 1015 706.4 1009.9C710.8 1005.6 709.9 998.7 706.6 994C702.9 988.8 696.8 986.2 690.5 986.6C686.1 986.9 677.1 988.9 677 994.5C677 996.4 680 996.4 680 994.5Z" fill="#E8E8E8"/>
<path d="M679.5 992.9C685.9 983.9 699.3 979.8 709.3 976.6C720.4 973.1 731.9 971 743.6 970.4C745.5 970.3 745.5 967.3 743.6 967.4C730.5 968.1 717.5 970.5 705.1 974.8C695.1 978.3 683.3 982.4 676.9 991.4C675.8 993 678.4 994.5 679.5 992.9Z" fill="#E8E8E8"/>
<path d="M745.1 970.8C752.8 971.7 759 977.7 760.5 985.2C760.9 987.1 763.8 986.3 763.4 984.4C761.6 975.4 754.1 968.9 745.1 967.8C743.1 967.6 743.2 970.6 745.1 970.8Z" fill="#E8E8E8"/>
<path d="M748.8 967.7C760 960.7 770.9 969.7 773.2 981C773.6 982.9 776.5 982.1 776.1 980.2C773.3 966.9 760.1 957.1 747.3 965.1C745.7 966.2 747.2 968.8 748.8 967.7Z" fill="#E8E8E8"/>
<path d="M761.2 987.299C767.4 989.299 774 985.799 776.2 979.799C776.9 977.999 774 977.199 773.3 978.999C771.7 983.499 766.5 985.899 762 984.399C760.1 983.799 759.3 986.699 761.2 987.299Z" fill="#E8E8E8"/>
<path d="M679.1 991.4C673.9 994.4 674.2 1001.5 676.2 1006.4C678.4 1012 683.8 1015.7 689.9 1014.2C691.8 1013.7 691 1010.9 689.1 1011.3C684.4 1012.4 680.6 1009.4 679 1005.2C677.7 1001.8 676.8 996.2 680.7 994C682.3 993 680.8 990.4 679.1 991.4Z" fill="#E8E8E8"/>
<path d="M680.5 1002.8C677.5 994.699 692.1 989.799 697.2 994.399C700.4 997.299 699.6 1001.9 696.2 1004.3C694.7 1005.4 692.8 1006.2 690.9 1005.8C684.2 1004.5 689.7 996.799 693 1001.2C694.2 1002.7 696.8 1001.2 695.6 999.699C691.7 994.599 683.1 997.199 684.7 1004.1C686.4 1011.7 697.2 1009 700.5 1004.3C705.1 997.699 700.1 989.699 692.5 989.599C685.3 989.499 674.4 994.699 677.7 1003.5C678.3 1005.4 681.2 1004.6 680.5 1002.8Z" fill="#E8E8E8"/>
<path d="M704.4 1010.6C725.4 1006.1 745.4 998.4 764 987.7C765.7 986.7 764.2 984.1 762.5 985.1C744.1 995.7 724.3 1003.2 703.6 1007.7C701.7 1008.1 702.5 1011 704.4 1010.6Z" fill="#E8E8E8"/>
<path d="M760.8 963C777.8 948.7 794.8 931.7 816.6 925.2C818.4 924.6 817.7 921.8 815.8 922.3C793.5 929 776.1 946.3 758.7 960.9C757.2 962.1 759.4 964.2 760.8 963Z" fill="#E8E8E8"/>
<path d="M816.4 926.3C827.6 930.1 835.7 940.1 836.9 951.9C837.1 953.8 840.1 953.8 839.9 951.9C838.6 938.7 829.8 927.6 817.2 923.4C815.4 922.8 814.6 925.7 816.4 926.3Z" fill="#E8E8E8"/>
<path d="M775.9 982.699C796.4 973.599 816.8 964.099 837 954.199C838.7 953.399 837.2 950.799 835.5 951.599C815.3 961.499 794.9 970.899 774.4 980.099C772.6 980.899 774.2 983.499 775.9 982.699Z" fill="#E8E8E8"/>
<path d="M747.9 969.1C748.6 968.6 749.3 968.2 749.9 967.7C750.6 967.2 750.9 966.4 750.4 965.6C750 964.9 749 964.6 748.3 965.1C747.6 965.6 746.9 966 746.3 966.5C745.6 967 745.3 967.8 745.8 968.6C746.2 969.2 747.2 969.6 747.9 969.1Z" fill="#E8E8E8"/>
<path d="M451.2 944.3C453.1 966.7 458.1 988.6 466.2 1009.5C466.9 1011.3 469.8 1010.5 469.1 1008.7C461.1 988 456 966.4 454.2 944.3C454.1 942.4 451.1 942.4 451.2 944.3Z" fill="#E8E8E8"/>
<path d="M446 989.2C452.2 992.4 457.7 996.6 462.6 1001.7C463.9 1003.1 466 1001 464.7 999.6C459.7 994.3 454 990 447.5 986.7C445.8 985.7 444.3 988.3 446 989.2Z" fill="#E8E8E8"/>
<path d="M467.9 974.199C463.6 980.399 461.7 987.599 462.4 995.099C462.6 996.999 465.6 996.999 465.4 995.099C464.8 988.099 466.5 981.599 470.5 975.699C471.5 974.199 468.9 972.699 467.9 974.199Z" fill="#E8E8E8"/>
<path d="M476.8 965.9C479.7 978.3 480.6 990.9 479.3 1003.6C479.1 1005.5 482.1 1005.5 482.3 1003.6C483.5 990.7 482.6 977.8 479.6 965.1C479.3 963.3 476.4 964.1 476.8 965.9Z" fill="#E8E8E8"/>
<path d="M472.4 970.3C474.8 974.9 477.2 979.6 479.6 984.2C480.5 985.9 483.1 984.4 482.2 982.7C479.8 978.1 477.4 973.4 475 968.8C474.1 967.1 471.5 968.6 472.4 970.3Z" fill="#E8E8E8"/>
<path d="M531.6 343.699C540.934 343.699 548.5 336.133 548.5 326.799C548.5 317.466 540.934 309.899 531.6 309.899C522.267 309.899 514.7 317.466 514.7 326.799C514.7 336.133 522.267 343.699 531.6 343.699Z" fill="#40A7F2"/>
<path d="M1076.2 703.799C1082.94 703.799 1088.4 698.337 1088.4 691.599C1088.4 684.861 1082.94 679.399 1076.2 679.399C1069.46 679.399 1064 684.861 1064 691.599C1064 698.337 1069.46 703.799 1076.2 703.799Z" fill="#161616"/>
<path d="M1094 680.199C1096.76 680.199 1099 677.961 1099 675.199C1099 672.438 1096.76 670.199 1094 670.199C1091.24 670.199 1089 672.438 1089 675.199C1089 677.961 1091.24 680.199 1094 680.199Z" fill="#161616"/>
<path d="M285.3 376.599C290.05 376.599 293.9 372.749 293.9 367.999C293.9 363.25 290.05 359.399 285.3 359.399C280.551 359.399 276.7 363.25 276.7 367.999C276.7 372.749 280.551 376.599 285.3 376.599Z" fill="#161616"/>
<path d="M317.7 395.199C322.892 395.199 327.1 390.991 327.1 385.799C327.1 380.608 322.892 376.399 317.7 376.399C312.509 376.399 308.3 380.608 308.3 385.799C308.3 390.991 312.509 395.199 317.7 395.199Z" fill="#40A7F2"/>
<path d="M614 604.299C616.872 604.299 619.2 601.971 619.2 599.099C619.2 596.227 616.872 593.899 614 593.899C611.128 593.899 608.8 596.227 608.8 599.099C608.8 601.971 611.128 604.299 614 604.299Z" fill="#52A1FF"/>
<path d="M1019.5 113.8C1024.47 113.8 1028.5 109.77 1028.5 104.8C1028.5 99.8292 1024.47 95.7998 1019.5 95.7998C1014.53 95.7998 1010.5 99.8292 1010.5 104.8C1010.5 109.77 1014.53 113.8 1019.5 113.8Z" fill="#40A7F2"/>
<path d="M1059.5 144.799C1063.26 144.799 1066.3 141.755 1066.3 137.999C1066.3 134.244 1063.26 131.199 1059.5 131.199C1055.74 131.199 1052.7 134.244 1052.7 137.999C1052.7 141.755 1055.74 144.799 1059.5 144.799Z" fill="#40A7F2"/>
<path d="M1052.5 653.6C1056.37 653.6 1059.5 650.466 1059.5 646.6C1059.5 642.734 1056.37 639.6 1052.5 639.6C1048.63 639.6 1045.5 642.734 1045.5 646.6C1045.5 650.466 1048.63 653.6 1052.5 653.6Z" fill="#40A7F2"/>
<path d="M584 113.8C586.485 113.8 588.5 111.785 588.5 109.3C588.5 106.815 586.485 104.8 584 104.8C581.515 104.8 579.5 106.815 579.5 109.3C579.5 111.785 581.515 113.8 584 113.8Z" fill="#40A7F2"/>
<path d="M714.1 556.799C714.5 551.499 720.6 551.699 723.8 553.499C725.4 554.399 726.7 555.699 728 556.999C730.3 559.199 732.5 561.699 735.4 563.099C740.8 565.499 744.1 562.599 748.6 559.999C762.8 551.999 773.3 577.999 787.6 568.899C788.4 568.399 787.7 567.099 786.8 567.599C777.3 573.699 768.4 561.899 760.5 558.399C757.9 557.199 755.1 556.499 752.3 556.999C748.2 557.699 745.5 561.299 741.6 562.299C732.4 564.799 728.9 551.799 720.6 550.899C716.6 550.399 712.8 552.799 712.5 556.899C712.5 557.799 714 557.799 714.1 556.799Z" fill="#E8E8E8"/>
<path d="M967.9 614.099C969.7 606.999 975.8 603.299 982.9 603.899C986.5 604.199 989.4 604.099 991.8 600.999C994.6 597.299 994.7 592.299 998.1 588.799C1002.1 584.799 1008.2 583.599 1013.6 582.599C1014.5 582.399 1014.1 580.999 1013.2 581.199C1008.2 582.099 1002.8 583.199 998.7 586.299C994.8 589.299 993.8 593.399 991.9 597.699C989.4 603.199 985.6 602.199 980.5 602.299C978.5 602.299 976.6 602.799 974.8 603.599C970.5 605.599 967.6 609.299 966.4 613.799C966.2 614.699 967.6 615.099 967.9 614.099Z" fill="#E8E8E8"/>
<path d="M1002.1 608.5C1002.1 603.4 1005.2 598.5 1010.1 596.9C1013.6 595.7 1017.3 597.1 1020.8 595.9C1026.4 593.9 1029.2 586.9 1035.5 586.6C1036.5 586.5 1036.5 585 1035.5 585.1C1032.4 585.3 1030.1 586.7 1027.8 588.7C1026 590.3 1024.4 592.2 1022.3 593.4C1019 595.5 1016 594.6 1012.5 594.9C1005.5 595.5 1000.5 601.7 1000.5 608.5C1000.6 609.5 1002.1 609.5 1002.1 608.5Z" fill="#E8E8E8"/>
<path d="M634 174.9C635.6 179.7 639.1 186 645.1 183C648.7 181.2 650.4 177.3 654.7 176.5C659.5 175.6 664.5 178 666.8 182.3C667.4 183.5 669.1 183.1 669.5 181.9C672.5 173.2 683.5 172.5 687.9 180.4C688.8 182.1 691.4 180.6 690.5 178.9C684.8 168.5 670.5 170 666.7 181.1C667.6 181 668.5 180.9 669.4 180.7C666.8 175.8 661.6 173 656.1 173.3C653.6 173.4 651.2 174.1 649.2 175.6C647.9 176.5 646.9 178.2 645.5 179C644.1 179.8 639.7 179.2 638.5 178C637.6 177.1 637.2 175.2 636.9 174.1C636.3 172.3 633.4 173.1 634 174.9Z" fill="#161616"/>
<path d="M677.8 161.699C679.7 163.199 681.5 163.199 683.8 162.499C686.9 161.599 688.9 159.699 691.6 163.199C692.5 164.399 692.8 165.999 694 167.099C696.2 169.299 699.4 169.599 702.4 169.299C705.9 168.999 715.9 166.599 715.4 173.099C715.3 174.999 718.3 174.999 718.4 173.099C719.1 163.899 707 166.199 701.7 166.399C697.8 166.499 696 164.899 694.2 161.699C693.4 160.299 692.6 159.099 691.1 158.399C687.7 156.899 682.5 161.499 679.9 159.499C678.4 158.399 676.2 160.499 677.8 161.699Z" fill="#161616"/>
<path d="M364.4 706.1C363.3 702.6 363.5 699 365.4 695.9C367.4 692.7 370.5 691.7 373.4 689.8C377.1 687.3 378.5 683.9 379.1 679.6C379.4 677.3 379.4 675 380 672.7C381.1 668.7 383.6 666.9 387.3 665.3C390.7 663.9 393.8 662.7 396 659.6C397.1 658 394.5 656.5 393.4 658.1C390.2 662.5 383.9 662.4 380.1 666.1C376.3 669.9 376.9 675.3 376 680.1C374.7 687.4 368.1 687.8 364 692.7C360.7 696.7 359.9 702.1 361.5 706.9C362.1 708.7 365 707.9 364.4 706.1Z" fill="#161616"/>
<path d="M365.8 672.899C373.2 668.499 367 657.699 374.5 653.499C378.5 651.199 382.1 650.199 385.3 646.599C388.4 643.099 390.4 638.899 392.4 634.699C393.2 632.999 390.6 631.399 389.8 633.199C387.8 637.399 385.8 641.599 382.6 644.999C379.2 648.699 374.6 649.099 370.9 652.099C365.4 656.599 369.8 666.899 364.2 670.299C362.6 671.299 364.1 673.799 365.8 672.899Z" fill="#161616"/>
<path d="M772.3 547.2C766.2 547.9 761.3 542.5 762.3 536.4C763.3 530.6 768.8 526.1 774.6 525.7C779.3 525.4 784.6 527.3 786.8 531.8C789.2 536.7 787 543.4 781.9 545.3C780.1 546 780.9 548.9 782.7 548.2C788.8 545.8 792 539.2 790.4 532.8C788.5 525.4 780.4 521.8 773.2 522.8C766.2 523.8 759.8 529.6 759.1 536.8C758.4 544.2 764.7 550.9 772.2 550.1C774.2 550 774.2 547 772.3 547.2Z" fill="#161616"/>
<path d="M317.3 877.399C323.6 870.599 333.2 861.099 346.1 851.399C357.2 842.999 366.2 837.899 377.6 831.499C393.9 822.399 414.2 811.299 437.9 798.599C474.3 795.199 504.9 792.799 527.7 791.099C570.1 787.899 638.2 782.799 716.2 780.799C732.3 780.399 747.7 780.099 747.7 780.099C791.3 779.299 802.3 779.999 847.8 779.399C881.2 778.999 881 778.599 899.2 778.699C926.6 778.899 949.1 779.899 964.3 780.799C973.4 781.499 991.9 782.899 1010.2 784.899C1013.8 785.299 1019.1 785.899 1026 787.599C1034.3 789.699 1040.9 792.399 1045.2 794.499C1039.8 802.699 1034.3 810.899 1028.8 819.199C1010.7 845.999 992.3 871.499 974 895.999C971.1 897.799 965.8 900.599 958.9 902.899C944.2 907.699 931.7 906.599 927.4 906.299C909.4 904.999 865.7 905.799 802 907.699C773.7 906.999 745.3 906.299 717 905.599C708.8 918.199 700.6 930.699 692.3 943.299C637.5 940.299 582.7 937.399 527.8 934.399C538.8 922.299 549.7 910.199 560.7 898.099C479.5 891.099 398.4 884.199 317.3 877.399Z" fill="white"/>
<path d="M374.8 859.799C424.2 863.099 473.5 866.899 522.8 871.299C524.7 871.499 524.7 868.499 522.8 868.299C473.5 863.899 424.2 860.099 374.8 856.799C372.9 856.699 372.9 859.699 374.8 859.799Z" fill="#161616"/>
<path d="M755.2 884.699C806.8 884.299 858.5 885.399 910.1 887.999C912 888.099 912 885.099 910.1 884.999C858.5 882.399 806.9 881.299 755.2 881.699C753.3 881.699 753.3 884.699 755.2 884.699Z" fill="#161616"/>
<path d="M464.2 829.5C489.2 833.9 514.6 833.3 539.9 833.1C566.7 832.9 593.5 833.5 620.3 834.4C673.2 836.3 726.1 839.8 779 842C809.4 843.3 839.9 844.1 870.3 844.1C872.2 844.1 872.2 841.1 870.3 841.1C764.3 841.4 658.7 830.2 552.8 830.1C523.5 830.1 494 831.8 465 826.7C463.2 826.3 462.3 829.2 464.2 829.5Z" fill="#161616"/>
<path d="M705.2 808.1C780.4 808.2 855.6 810.4 930.7 814.7C932.6 814.8 932.6 811.8 930.7 811.7C855.6 807.4 780.4 805.2 705.2 805.1C703.3 805.1 703.3 808.1 705.2 808.1Z" fill="#161616"/>
<path d="M1044.2 793.6C1022 827.5 998.8 860.6 974.5 892.9C973.3 894.4 975.9 895.9 977.1 894.4C1001.4 862.1 1024.7 828.9 1046.8 795.1C1047.9 793.5 1045.3 792 1044.2 793.6Z" fill="#161616"/>
<path d="M343 856.499C373.8 835.199 405 813.799 439.8 799.499C441.6 798.799 440.8 795.899 439 796.599C403.9 810.999 372.5 832.499 341.4 853.899C339.9 854.999 341.4 857.599 343 856.499Z" fill="#161616"/>
<path d="M436.9 799.899C516.3 792.599 595.8 787.299 675.4 784.199C755 781.099 834.7 779.899 914.4 781.099C936.7 781.399 959 781.999 981.2 783.999C1002.6 785.899 1025 788.099 1045 796.399C1046.8 797.099 1047.6 794.199 1045.8 793.499C1028.8 786.399 1010.1 784.099 991.9 782.099C972 779.899 952 778.899 932 778.399C892.1 777.399 852.1 777.499 812.2 777.899C732.2 778.599 652.2 781.499 572.3 786.499C527.1 789.299 481.9 792.799 436.8 796.999C434.9 797.099 434.9 800.099 436.9 799.899Z" fill="#161616"/>
<path d="M719 907.2C793.5 909.7 868 909.8 942.4 907C955.2 906.5 969.5 905 977.4 893.6C978.5 892 975.9 890.5 974.8 892.1C966.9 903.4 951.6 903.7 939.2 904.1C922.1 904.6 905 905.3 887.8 905.6C851.8 906.3 815.8 906.3 779.8 905.7C759.5 905.4 739.2 904.8 718.9 904.2C717.1 904.1 717.1 907.1 719 907.2Z" fill="#161616"/>
<path d="M341.5 853.8C332.7 861.5 323.9 869.2 315.1 876.9C314 877.8 315 879.4 316.2 879.5C397.1 886.5 478 893.5 558.9 898.9C560.8 899 560.8 896 558.9 895.9C477.9 890.4 397 883.5 316.2 876.5C316.6 877.4 316.9 878.2 317.3 879.1C326.1 871.4 334.9 863.7 343.7 856C345 854.6 342.9 852.5 341.5 853.8Z" fill="#161616"/>
<path d="M592.9 866.8C569.6 887.3 547.7 909.2 527.3 932.5C526 933.9 528.1 936.1 529.4 934.6C549.8 911.3 571.8 889.3 595 868.9C596.5 867.6 594.4 865.5 592.9 866.8Z" fill="#161616"/>
<path d="M594 868.899C642.7 864.199 691.7 865.399 740.1 872.599C742 872.899 742.8 869.999 740.9 869.699C692.3 862.399 643 861.099 594 865.899C592.1 866.099 592.1 869.099 594 868.899Z" fill="#161616"/>
<path d="M738.6 871.6C722.2 895.1 705.7 918.6 689.3 942.1C688.2 943.7 690.8 945.2 691.9 943.6C708.3 920.1 724.8 896.6 741.2 873.1C742.3 871.5 739.7 870 738.6 871.6Z" fill="#161616"/>
<path d="M527.7 936C581.7 938.7 635.8 941.3 689.8 944C691.7 944.1 691.7 941.1 689.8 941C635.8 938.3 581.7 935.7 527.7 933C525.8 932.9 525.8 935.9 527.7 936Z" fill="#161616"/>
<path d="M569.6 917.199C578 918.699 586.3 920.099 594.7 921.599C596.6 921.899 597.4 918.999 595.5 918.699C587.1 917.199 578.8 915.799 570.4 914.299C568.5 913.999 567.7 916.899 569.6 917.199Z" fill="#161616"/>
<path d="M589.1 907.999C584 913.299 579.2 918.899 574.7 924.799C573.5 926.299 576.1 927.799 577.3 926.299C581.7 920.699 586.3 915.299 591.3 910.099C592.5 908.799 590.4 906.599 589.1 907.999Z" fill="#161616"/>
<path d="M603.2 909.5C603.3 904.3 607.2 900.9 612.3 901C614.8 901 617.1 901.8 619.6 901.4C624.2 900.7 628.2 897.8 630.3 893.8C631.8 891.1 632.2 888 634.5 885.8C637 883.4 640.5 882.3 643.9 882C647 881.7 650.4 881.9 653.4 883C655.9 884 658.5 885.9 658.6 888.9C658.7 891.2 657.3 893.6 654.7 893.7C654.8 894.7 655 895.7 655.1 896.6C657.8 896.2 660.8 899.1 661.6 901.4C662 902.5 662.1 903.9 662 905C661.9 907.6 660.6 910.3 658.9 912.3C657.2 914.3 655 915.9 652.5 916.6C650.3 917.2 649.9 917.3 648.3 915.5C646.5 913.4 647.3 913 649.2 911.4C657.8 904.2 664.9 913.6 673.7 913.9C679.7 914.1 685.4 910.4 686.6 904.3C687.2 901.3 686.3 898.6 684.8 895.9C683.1 892.9 682.1 892.3 682.8 888.6C682.3 886.4 683 885.3 684.9 885.3C686 884.8 687 884.8 688 885.5C690.4 886.2 691.8 887.8 693.3 889.8C694.4 891.3 697 889.9 695.9 888.3C692.8 884 687.4 879.9 682 883.1C676.9 886.1 678.7 891.4 681.2 895.5C683.8 899.9 685.6 904.5 681 908.5C675.8 913 669.9 910 664.8 907.5C659.6 905 653.8 904.7 648.8 908C645.8 909.9 641.4 914.9 644.7 918.5C648.3 922.3 655.8 919.1 659 916.5C663.1 913.2 665.8 907.7 665 902.3C664.1 896.9 659.9 892.7 654.4 893.6C652.7 893.9 653.1 896.6 654.8 896.5C660.9 896.4 663.5 889 660.3 884.3C655.9 877.8 644.9 877.7 638.3 880.1C635 881.3 632.1 883.4 630.3 886.5C629 888.7 628.6 891.4 627.2 893.5C625 896.7 621.1 898.6 617.2 898.6C612.6 898.5 609 897.2 605 900.2C601.9 902.5 600.4 905.9 600.4 909.6C600.2 911.5 603.2 911.5 603.2 909.5Z" fill="#161616"/>
<path d="M763 346.6C762.8 370.5 762.5 394.3 762.3 418.2C818.5 416.6 874.7 414.9 930.8 413.3C942.3 422.2 953.7 431.1 965.2 440C962.2 422.4 959.1 404.9 956.1 387.3C955.2 372.8 954.2 358.3 953.3 343.8C889.9 344.7 826.4 345.7 763 346.6Z" fill="#40A7F2"/>
<path d="M776.6 378.399H880.1C882 378.399 882 375.399 880.1 375.399C845.6 375.399 811.1 375.399 776.6 375.399C774.7 375.399 774.7 378.399 776.6 378.399Z" fill="#E8E8E8"/>
<path d="M803.1 391.8H898.4C900.3 391.8 900.3 388.8 898.4 388.8C866.6 388.8 834.8 388.8 803.1 388.8C801.2 388.8 801.2 391.8 803.1 391.8Z" fill="#E8E8E8"/>
<path d="M892.6 377.899H904.6C906.5 377.899 906.5 374.899 904.6 374.899C900.6 374.899 896.6 374.899 892.6 374.899C890.7 374.899 890.7 377.899 892.6 377.899Z" fill="#E8E8E8"/>
<path d="M926.7 386.9C923 385.2 920.2 382.2 919.2 378.2C918.7 376.3 918.3 373.5 919.6 371.8C922.1 368.3 925.1 373.1 925.9 375.6C926.3 376.9 928.5 377.1 928.8 375.6C928.9 374.9 929.1 374.2 929.3 373.5C930.1 370.5 932 370.8 935.1 374.2C935.6 376 934.4 379 933.6 380.5C931.9 383.9 929.1 386.3 925.7 388C924 388.8 925.5 391.4 927.2 390.6C933.6 387.6 940.6 378.8 937.4 371.3C936.4 369 934 367.2 931.4 367.6C927.9 368.1 926.4 371.8 925.8 374.8H928.7C927 369.3 919.8 362.9 916.5 371C913.6 378.1 918.8 386.5 925.2 389.5C926.9 390.3 928.4 387.7 926.7 386.9Z" fill="#E8E8E8"/>
<path d="M506.7 754.3C504.4 769.9 502.1 785.6 499.8 801.2C457.5 814.1 436.8 822.5 437.6 826.2C438.6 830.8 471.2 828.6 535.6 819.6C536.5 797.2 537.5 774.9 538.4 752.5C527.8 753.1 517.3 753.7 506.7 754.3Z" fill="#161616"/>
<path d="M527.2 611.199C525.1 612.799 523.9 614.599 519.4 623.299C515.8 630.199 514.1 633.699 512.9 636.299C504.8 654.699 496.9 683.599 496.9 683.599C490.6 706.499 487.4 717.899 485.2 729.999C482 747.099 480.7 761.599 480 772.099C485.9 774.799 493 777.499 501.3 779.499C520.9 784.199 537.8 782.799 549 780.799C551 766.699 553.8 751.399 557.7 735.299C561.1 720.899 565 707.599 569 695.399C573.3 698.099 579.6 702.299 587.2 707.499C612.1 724.799 619.9 733.199 634.5 742.599C644.1 748.799 658.3 756.599 677.9 762.599C682.4 761.999 694.7 759.799 705.2 749.599C721 734.099 719.4 713.099 719.1 710.099C712.5 703.099 703.2 693.699 691.3 683.599C670.3 665.799 652.2 654.899 639.3 647.199C628.9 640.999 617.3 635.299 594.2 623.799C594.2 623.799 567.1 610.399 542.2 608.199C537.8 607.799 531.9 607.599 527.2 611.199Z" fill="white"/>
<path d="M481.2 770.8C483.8 744.6 488.6 718.7 495.5 693.4C498.9 681 502.8 668.7 507.2 656.5C511.6 644.4 516 631.7 522.2 620.3C525.9 613.5 530.9 611.2 538.4 610.9C545.2 610.6 552 611.5 558.6 613.1C570.7 615.9 582.4 620.6 593.8 625.5C615.4 634.7 636.2 646 655.7 659.2C677.9 674.2 698.4 691.5 716.9 710.9C718.2 712.3 720.4 710.2 719 708.8C684 672.3 641.8 642.9 595.3 623C583.9 618.1 572.3 613.5 560.2 610.5C550.2 608.1 534.7 604.8 525.6 611.3C521.7 614.1 519.5 618.6 517.5 622.9C514.9 628.6 512.5 634.4 510.1 640.2C504.8 653.3 500.1 666.6 496 680.2C487.1 709.7 481.1 740.1 478.1 770.8C478 772.7 481 772.7 481.2 770.8Z" fill="#161616"/>
<path d="M480.6 772.199C501.2 783.799 525.4 787.099 548.4 781.399C550.3 780.899 549.5 777.999 547.6 778.499C525.4 783.999 502 780.899 482.1 769.599C480.4 768.699 478.9 771.199 480.6 772.199Z" fill="#161616"/>
<path d="M551.4 779.199C554.9 750.699 561.3 722.599 570.3 695.299C570.9 693.499 568 692.699 567.4 694.499C558.3 722.099 552 750.399 548.4 779.199C548.2 781.099 551.2 781.099 551.4 779.199Z" fill="#161616"/>
<path d="M561 692.4C601.1 712.8 631 752 676.1 762.5C678 762.9 678.8 760 676.9 759.6C632.1 749.1 602.3 710.1 562.5 689.8C560.8 688.9 559.3 691.5 561 692.4Z" fill="#161616"/>
<path opacity="0.12" d="M515.2 782.4C525.4 750 536.6 717 548.9 683.4C551.8 675.4 554.8 667.5 557.8 659.6C578.7 670.6 599.7 681.6 620.6 692.6C649.8 708 679 723.5 708.2 739.1C707.4 742.8 704.5 752.9 695.4 758.3C688.6 762.3 681.1 762 673.1 760.4C648.3 755.4 632.7 740.4 601.5 717.1C594.4 711.8 583.5 703.8 569.6 694.4C566.9 702 564.3 709.9 561.8 718.2C555.1 740.6 550.8 761.7 548 781C542.2 782.5 534.5 783.8 525.7 783.5C521.8 783.3 518.3 782.9 515.2 782.4Z" fill="#6D6C6C"/>
<path opacity="0.12" d="M567 693.299C564.5 692.299 554.4 711.099 551.4 716.699C543.7 730.999 533.7 752.099 524.4 780.199C526.3 780.999 528.7 781.899 531.5 782.299C538.9 783.599 544.9 781.799 548.2 780.499C553.5 752.699 558.9 730.599 563.1 714.899C565.7 705.099 568.8 694.099 567 693.299Z" fill="#6D6C6C"/>
<path d="M410.5 766.399C403.7 784.199 396.8 802.099 390 819.899C350.1 833.199 330.7 841.999 331.6 846.299C332.7 851.299 361.3 850.299 417.4 843.199C424.1 821.499 430.8 799.899 437.6 778.199C428.5 774.299 419.5 770.399 410.5 766.399Z" fill="#161616"/>
<path d="M467.8 592.5C460.1 597.9 455.7 604.3 453.5 607.7C443.9 622.2 439 629.5 435.7 635.9C426.3 654 420.3 669.2 417.5 676.7C408 701.8 403.2 722.2 398.8 740.5C395.6 754.2 393.3 765.6 391.9 773.5C395.9 778.3 401.6 784 409.2 789.1C425.2 799.8 441.3 802.3 450 803C457.3 781.9 464.2 764.1 470 750.1C476.1 735.1 480.6 725.1 488.7 713.7C494.5 705.4 500.2 699.2 504.3 695C508.8 701.3 515.3 709.8 523.8 719.3C534.3 731 553.5 752.1 584.5 770.5C609.6 785.4 629.3 790.7 649.1 796.1C669.7 801.7 676 801.1 680.8 798.3C700.5 786.7 690.5 740.4 689.9 737.6C670.6 722.8 656.3 709.7 646.5 700.3C637.7 691.8 627.8 681.5 610.5 666C605.9 661.9 601.1 657.6 594.5 652.1C591.4 649.5 579.9 640.1 560.2 626.5C560.2 626.5 535.2 609.2 510.8 596.6C510.8 596.6 504.6 593.4 493.9 590.1C485 587.4 481.3 587.2 477.9 587.9C476.7 588 473.2 588.8 467.8 592.5Z" fill="white"/>
<path d="M464.9 592.8C420.8 641.8 402.2 707 390 770.3C389.6 772.2 392.5 773 392.9 771.1C405 708.3 423.3 643.5 467 594.9C468.4 593.5 466.2 591.3 464.9 592.8Z" fill="#161616"/>
<path d="M391 773.8C405.6 790.7 425.7 802 447.7 805.6C449.6 805.9 450.4 803 448.5 802.7C426.9 799.2 407.4 788.2 393.1 771.7C391.9 770.2 389.8 772.3 391 773.8Z" fill="#161616"/>
<path d="M450.6 804.2C457 784.3 464.6 764.9 473.6 746C481.8 728.9 490.2 709.2 504.9 696.6C506.4 695.3 504.2 693.2 502.8 694.5C487.9 707.3 479.3 727.2 471.1 744.5C462 763.6 454.3 783.3 447.8 803.4C447.1 805.2 450 806 450.6 804.2Z" fill="#161616"/>
<path d="M494.3 683.799C535.4 740.399 591.4 791.199 663.4 800.799C665.3 801.099 665.3 798.099 663.4 797.799C592.6 788.399 537.4 737.999 496.9 682.299C495.7 680.799 493.1 682.299 494.3 683.799Z" fill="#161616"/>
<path d="M467.4 594.799C483.9 582.699 504.9 596.099 520.1 604.299C535.8 612.699 550.9 621.999 565.6 632.099C595.2 652.599 622.5 676.399 646.9 702.899C648.2 704.299 650.3 702.199 649 700.799C608.8 657.099 560.5 620.399 507.1 594.299C494.3 587.999 478.6 582.999 465.9 592.299C464.4 593.299 465.9 595.899 467.4 594.799Z" fill="#161616"/>
<path opacity="0.13" d="M414.6 789.2C421.2 775.6 432.8 751.6 447.1 721.3C474.6 663.4 479.2 652.2 491.8 647.9C513.6 640.6 534.3 662.5 582.2 696.7C609 715.9 645.9 740 693 764.3C693.9 769.5 695.8 783.7 687.5 792.7C683.8 796.6 675.4 802.6 649.4 798.2C639.4 796.5 592.6 787.6 535.8 731C521.5 716.8 510.9 703.8 503.9 694.6C501 698 496.6 703.5 491.8 710.5C483.4 722.9 477.8 734.2 464.8 765.5C460.6 775.5 455.4 788.3 449.6 803.2C445.8 803.4 438.6 803.4 430.6 800.1C422.4 797 417.2 792 414.6 789.2Z" fill="#6D6C6C"/>
<path opacity="0.12" d="M496 681.199C499.9 683.199 505.6 686.199 512.3 690.199C554.6 715.399 555.6 730.699 587.1 749.399C611.6 763.899 620.8 760.499 646 779.499C655.8 786.899 663.1 793.999 667.8 798.899C658.1 798.099 644.7 796.099 629.4 791.299C609.4 784.999 595.6 776.699 585.4 770.499C580.3 767.399 559.1 754.299 535.9 730.999C524.3 719.499 509.8 703.099 496 681.199Z" fill="#6D6C6C"/>
<path opacity="0.12" d="M500.5 694.999C499.1 693.199 488.6 697.699 479.4 704.699C462.8 717.199 458.1 731.699 442.7 760.099C438.2 768.399 431.4 780.499 422.3 794.699C431.2 798.299 440.1 801.899 449 805.399C451 799.999 466.3 759.099 477.7 734.399C481.4 726.499 483.4 722.099 487 716.099C495 702.899 501.8 696.699 500.5 694.999Z" fill="#6D6C6C"/>
<path d="M915.5 523.3C918.1 524.7 918 526.2 921.3 529C924 531.3 925 531 926.1 532.9C927.3 535 927.5 537.4 927.5 539C928.6 539 930.6 539.3 932.7 540.8C933.3 541.2 937.4 544.1 938.5 550.4C939.3 554.7 938.3 558.3 937.8 559.6C938.9 560.6 940.6 562.4 941.2 565.3C942 568.9 940.9 572.2 939.5 575.8C935.4 585.9 931.7 590.1 927.5 598.6C926.2 601.1 924.5 605 922.7 610C922.6 613.8 922.6 620 923.4 627.5C924.6 638.7 926.8 646.8 927.5 649.4C931 662.4 937.2 692.8 937.8 720.7C938.1 735 938.4 757.9 928.5 781.3C924.8 790.1 919.3 802.5 908.2 807.6C906.4 808.4 893.5 814.3 884.5 805C881.2 801.6 879.5 797.4 878.7 794.5C878.5 793 878.3 790.7 878.4 787.9C878.7 775.8 884.3 767.1 886.3 763.8C893.1 752.3 895.2 739.5 898.7 717.8C900.9 704.4 900.4 692.8 899.4 670C898.7 654.4 897.2 633.3 893.9 608.2C892.2 607.7 890 606.7 888.4 604.3C886 600.6 887.4 597.2 885.6 590.7C884.2 585.8 883.1 586.7 880.8 580.2C879.1 575.5 877.5 571.2 878.4 566.2C878.6 565.2 879.5 559.3 882.9 557.9C887.2 556 892 562.8 893.2 564.5C895.6 567.9 896.8 571.5 897.3 573.7C899.7 569.7 902.2 564.9 904.5 559.2C905.6 556.6 906.5 554.1 907.3 551.7C906.9 549.5 906.4 546.3 906 542.4C905.5 537.2 905.3 534.5 905.9 531.1C906.3 528.8 907.3 523.7 910.4 522.3C912.3 521.6 914.4 522.7 915.5 523.3Z" fill="white"/>
<path d="M925.3 606.599C930.2 597.799 936 588.999 940 579.699C942.9 572.899 944.1 564.699 939.6 558.299C938.5 556.699 935.9 558.199 937 559.799C942.2 567.099 938.7 576.199 934.9 583.299C930.9 590.599 926.8 597.799 922.7 605.099C921.7 606.799 924.3 608.299 925.3 606.599Z" fill="#161616"/>
<path d="M932.4 574.9C939.7 565.2 945.6 541.8 928.6 538C926.7 537.6 925.9 540.5 927.8 540.9C942.6 544.2 935.9 565.2 929.8 573.4C928.7 574.9 931.3 576.4 932.4 574.9Z" fill="#161616"/>
<path d="M924.5 566C931.4 556.1 931.9 542.5 926.6 531.8C925.7 530.1 923.2 531.6 924 533.3C928.8 543.1 928.2 555.5 921.9 564.5C920.8 566 923.4 567.5 924.5 566Z" fill="#161616"/>
<path d="M918.6 558.3C921.4 549.5 922.3 539.9 920.3 530.8C919.2 525.9 914.3 517.3 908.2 522C902.5 526.4 905.1 538.5 905.7 544.4C906.3 550.3 905.6 554.5 902.5 559.6C899.8 564 897.6 568.6 895.9 573.5C895.2 575.3 898.1 576.1 898.8 574.3C901.1 567.8 905.2 562.5 907.9 556.3C910.4 550.5 908.7 544.2 908.3 538.1C908.1 535.3 907.3 530.8 908.4 528.1C908.5 526 909.8 525.6 912.3 526.7C915.1 525.6 916.7 526.4 917 529.2C917.7 531.1 918 533.3 918.2 535.3C919 542.8 918.2 550.2 915.9 557.4C915.2 559.4 918 560.2 918.6 558.3Z" fill="#161616"/>
<path d="M927.7 533.3C926.5 528.7 921.3 525 916.8 528.1C915.2 529.2 916.7 531.8 918.3 530.7C921.1 528.8 924 531.3 924.8 534.1C925.3 536 928.2 535.2 927.7 533.3Z" fill="#161616"/>
<path d="M897.7 571.1C896.1 565.2 892.2 557.7 885.6 556.5C879.3 555.3 877.1 561.4 876.9 566.5C876.4 576.1 881.5 582.7 884 591.5C886 598.6 885.4 605.7 892.6 609.9C894.3 610.9 895.8 608.3 894.1 607.3C888.7 604.2 888.5 598.8 887.4 593.3C886.6 588.9 884.5 585.2 882.7 581.1C880.6 576.4 878.3 569.1 880.1 564C880.2 563.5 880.3 563.1 880.4 562.6C882.7 561.9 885 561.1 887.2 560.4C888.5 560.8 890.1 562.9 891 563.9C892.9 566.3 894 568.9 894.7 571.9C895.3 573.8 898.2 573 897.7 571.1Z" fill="#161616"/>
<path d="M892 608.4C896.2 643.1 900.7 679.1 897.6 714C896.1 730.5 892 745.8 885.4 760.9C880 773.3 876.1 785 878.7 798.6C879.1 800.5 882 799.7 881.6 797.8C878.7 782.6 884.9 770.1 890.6 756.5C896.6 742.4 899.6 727.4 900.8 712.2C903.5 677.8 899.2 642.5 895.1 608.4C894.7 606.5 891.7 606.5 892 608.4Z" fill="#161616"/>
<path d="M922.3 604C919.9 610.9 921.1 618.6 921.9 625.7C922.8 633.2 924 640.7 925.4 648.1C928.5 664.4 932.4 680.5 934.5 697C936.6 713.2 936.7 729.6 934.9 745.8C933.1 761.9 930 779.5 921 793.3C916.7 799.9 910.3 806.3 902.2 807.8C893.5 809.5 885.6 804.3 881.5 796.8C880.6 795.1 878 796.6 878.9 798.3C884.7 808.8 896.6 814 907.9 809C921.3 803.1 928.4 788.1 932.3 774.8C942.6 739.8 939.7 703.3 932.6 668C930.6 658 928.4 648 926.8 637.9C925.9 632.5 925.2 627.1 924.6 621.7C924.1 616 923.3 610 925.2 604.5C925.9 603 923 602.2 922.3 604Z" fill="#161616"/>
<path opacity="0.1" d="M932.1 541.699C932.4 546.699 932.4 553.099 931.2 560.099C928 579.299 918.5 591.399 914.1 596.199C914 601.899 913.8 610.699 914.1 621.299C915.3 668.899 922.7 692.199 923.9 714.499C925.1 736.199 921.1 767.899 896.1 808.899C899.4 809.199 904.6 809.199 910 806.299C914.9 803.699 922.5 797.699 929.4 777.599C935.7 759.199 942.6 725.499 934.9 686.899C931.5 670.099 926.3 656.899 923.6 628.699C922.9 621.199 922.6 614.899 922.4 610.599C924.1 606.599 926.6 601.099 930.2 595.099C936.1 585.199 939.9 581.899 940.9 574.799C941.6 569.799 940.6 564.699 938.6 559.699C938.8 558.399 939.6 553.099 937.2 547.899C935.6 544.199 933.2 542.399 932.1 541.699Z" fill="#6D6C6C"/>
<path opacity="0.11" d="M922 617.999C921.5 618.1 923.1 635.499 926.3 670.299C929.2 700.999 930.6 716.3 930.6 717.5C931.6 763.1 917.6 795.3 919.9 796.4C921.5 797.2 929.5 781 934.1 761.4C940.4 734.3 937.9 710.799 936.4 697.299C935 685.399 934.5 688.699 927.4 648.299C923.9 627.999 922.5 617.9 922 617.999Z" fill="#6D6C6C"/>
<path d="M675.7 712.499C666.2 731.799 663.5 748.799 661 765.399C659.6 774.499 658.2 787.399 658.3 802.999C689.5 811.299 717.3 815.799 740.1 818.199C769.7 821.399 761 817.499 835.7 820.099C873 821.399 892.2 822.699 897.5 812.499C901.9 803.899 891.1 795.299 890.5 775.499C890 759.599 896.3 746.599 901.3 738.499C871.8 726.599 837.7 714.799 799.3 704.799C761.1 694.799 725.7 688.399 694.2 684.399C689.2 690.299 682 699.699 675.7 712.499Z" fill="#D6D6D6"/>
<path opacity="0.12" d="M678.3 709.1C685.6 723.7 701 748.7 729.7 762.7C740.9 768.2 753.6 771.7 791 773.6C815.2 774.8 848.8 775.4 889.5 772.1C888.9 780.8 890.7 787 892.4 791.1C895 797.2 898.6 800.7 898.2 807.1C898.1 808.6 897.9 812.4 895.3 815.5C891.7 819.7 885.8 820.1 882.9 820.2C854.1 821.6 844.2 820.6 844.2 820.6C820 818 798.5 818.6 780.7 819.1C773 819.3 768.9 819.6 760.6 819.5C756 819.4 743.3 819.1 724.9 816.6C697.8 812.9 672.8 806.6 658.9 802.7C658.6 784.8 660.2 770 661.8 759.3C664.3 742.9 667.3 733.8 668.4 730.9C671.6 721.7 675.3 714.3 678.3 709.1Z" fill="#6D6C6C"/>
<path opacity="0.1" d="M667.3 735.3C671.2 743.2 677.9 754.4 689.2 764.8C708.2 782.2 728.7 786.8 753 792.5C804.5 804.7 857 818.6 856.6 820.9C856.4 822.3 836.8 819.1 803 818.7C794.8 818.6 789.5 818.5 781.8 818.7C766.8 819 762.7 819.8 753.7 819.4C744 819 736.9 817.6 729.3 816.1C698.8 810 668.4 803.3 658.6 801.1C658.7 794.7 659.1 788 659.7 781C661.2 764.3 664 748.9 667.3 735.3Z" fill="#6D6C6C"/>
<path d="M959.3 793.699C938.1 796.699 926 797.299 906.2 802.899C897 805.499 889.6 808.199 884.7 810.199C881.6 801.499 877.9 787.399 879.5 770.199C880.4 759.999 882.9 751.499 885.5 745.099C891 746.499 897.9 747.799 906 748.299C916.1 748.899 924.7 748.099 931.2 746.999C933.7 737.999 936.1 729.099 938.6 720.099C943.1 718.899 947.7 717.599 952.2 716.399C952.6 713.899 953.1 711.399 953.5 708.899C959.1 711.499 968 715.699 979.1 720.399C1000 729.399 1003 729.699 1007.5 733.699C1019.6 744.599 1025.4 766.299 1016.5 778.799C1011.1 786.299 993.8 788.799 959.3 793.699Z" fill="white" stroke="#161616" stroke-width="2"/>
<path d="M951.8 708.7C951.1 713.4 950.8 718.1 951 722.9C951.1 724.8 954.1 724.8 954 722.9C953.8 718.4 954.1 714 954.7 709.5C954.9 707.6 952 706.8 951.8 708.7Z" fill="#161616"/>
<path d="M984.4 734.2C985.2 737.9 982.9 741.2 979.7 742.7C977.9 743.5 979.5 746.1 981.2 745.3C985.8 743.2 988.3 738.3 987.3 733.4C986.9 731.5 984 732.3 984.4 734.2Z" fill="#161616"/>
<path d="M973.1 733.2C974.2 733.3 975.4 733.6 976.3 734.4C976.5 734.6 976.7 734.8 976.9 735C977.5 734.5 977.6 734.2 977.1 734.3C976.8 734.1 976 734.1 975.7 734C975.2 733.8 974.7 733.7 974.2 733.4C973.9 733.3 973.7 733.1 973.4 732.9C972.6 733.4 972.5 733.8 973.2 734C973.6 734.4 974.4 734.8 974.9 735.1C975.5 735.5 976 735.8 976.6 736.2C978.2 737.2 979.4 735.1 978.4 733.8C977.8 733 977.1 732.6 976.2 732.2C974.4 731.5 973.6 734.4 975.4 735.1C975.8 735.3 976 735.6 976.3 735.9C976.9 735.1 977.5 734.3 978.1 733.5C976.7 732.6 975.4 731.6 974 730.9C972.9 730.3 971.5 730.5 970.8 731.6C969 734.3 972.9 736.2 974.9 736.8C976 737.1 977.3 737.4 978.4 737C979.6 736.6 980.2 735.3 979.8 734.1C979 731.5 975.5 730.4 973.1 730.2C971.1 730.1 971.2 733.1 973.1 733.2Z" fill="#161616"/>
<path d="M1002.4 729.6C1006.7 730.8 1013.8 733.4 1020.7 738.8C1023.1 740.7 1028.3 744.8 1031.4 750.7C1037.3 761.9 1034.6 777.6 1024.3 788C1014.2 798.1 998 801.7 982.9 797.2C989.4 774.7 995.9 752.2 1002.4 729.6Z" fill="#40A7F2"/>
<path d="M1007.3 691.3C997.9 726.1 988.5 760.9 979.1 795.7C977.6 801.3 986.3 803.7 987.8 798.1C997.2 763.3 1006.6 728.5 1016 693.7C1017.5 688.1 1008.8 685.7 1007.3 691.3Z" fill="#161616"/>
<path d="M986.9 774.399C985.3 767.799 981.1 763.599 976.2 758.699C965.8 748.299 961.2 750.399 954.7 743.199C944.5 731.699 952.6 722.499 942.5 712.099C933.9 703.299 920.9 702.599 917.9 702.499C915 702.399 903.3 702.299 894.3 709.999C886.5 716.699 883.6 726.799 885 727.599C885.5 727.899 887 727.199 891.8 722.099C890.3 723.599 888.5 725.999 887.4 729.199C886.2 732.999 886.4 736.699 887 736.799C887.5 736.899 887.7 734.799 889.8 733.399C891 732.599 892.4 732.299 893.4 732.299C890.8 735.099 888.4 738.799 889.2 742.599C891.2 753.199 915 758.099 922.9 759.699C948.5 764.999 963.5 759.899 971.5 769.499C972.2 770.299 975.4 774.199 974.2 777.799C972.6 782.399 964.3 784.999 959.3 782.799C955 780.899 954.4 775.999 953.5 776.199C952.4 776.499 953 784.699 957.8 792.199C959.6 794.899 961 797.099 963.9 798.599C969 801.099 975.5 799.799 979.4 797.399C987.7 792.699 988.7 781.599 986.9 774.399Z" fill="#161616" stroke="#161616" stroke-width="2"/>
<path opacity="0.22" d="M952.3 779.499C952.3 777.999 952.5 775.799 953.1 775.799C953.4 775.799 953.7 776.399 953.7 776.299C953.7 776.299 951.5 774.199 951.5 771.899C951.5 770.799 952 769.899 952.4 769.399C942.8 772.199 931.4 774.899 918.4 776.699C904.1 778.699 891.3 779.199 880.4 778.999C879.9 783.099 879.6 788.899 881 795.799C882.1 801.399 884 805.999 885.7 809.399C901.2 802.699 913.2 799.899 921.3 798.499C925.1 797.899 934.1 796.499 938.5 795.899C946.5 794.699 953.1 793.799 957.6 793.199C957.1 792.499 956.3 791.399 955.5 789.999C954.4 788.099 952.3 784.199 952.3 779.499Z" fill="#6D6C6C"/>
<path opacity="0.393485" d="M1034.2 764.3C1031 773.2 1022.3 779.1 1012.8 779C1001.6 778.8 995 770.2 994.4 769.4C991.8 779 989.3 788.7 986.7 798.3C989.1 798.8 992.4 799.3 996.4 799.2C1009 798.9 1017.6 793.2 1019.4 791.9C1022.2 790 1031.4 783 1033.7 771.1C1034.2 768.3 1034.2 765.9 1034.2 764.3Z" fill="#808080"/>
<path d="M855.9 559.1C860.3 565.2 865.3 571.6 871.1 578.2C878.9 587.1 886.6 594.6 893.8 600.9C904.1 590.9 915 580.8 926.5 570.5C937.4 560.7 948.2 551.5 958.8 542.8C956.3 537.7 952.9 531.8 948.4 525.8C939.6 514.1 929.9 506.3 922.5 501.3C905.6 513.2 887.8 527.4 870.2 544.5C865.2 549.5 860.5 554.3 855.9 559.1Z" fill="white"/>
<path d="M876.2 541.8C890.5 527.6 905.8 514.5 922.1 502.7C923.6 501.6 922.2 499 920.6 500.1C904.1 512.1 888.5 525.3 874.1 539.7C872.7 541.1 874.8 543.2 876.2 541.8Z" fill="#161616"/>
<path d="M921.4 502.099C935.8 512.999 947.9 526.499 957.3 541.899C958.3 543.499 960.9 541.999 959.9 540.399C950.2 524.499 937.7 510.799 922.9 499.499C921.4 498.399 919.9 500.999 921.4 502.099Z" fill="#161616"/>
<path d="M875.7 538.3C868.4 544.6 861.4 551.3 854.8 558.4C853.5 559.8 855.6 561.9 856.9 560.5C863.5 553.4 870.4 546.7 877.8 540.4C879.3 539.1 877.2 537 875.7 538.3Z" fill="#161616"/>
<path d="M855.2 561.2C866.6 575.2 878.8 588.4 891.9 600.9C893.3 602.2 895.4 600.1 894 598.8C881 586.3 868.7 573.1 857.3 559.1C856.1 557.5 853.9 559.7 855.2 561.2Z" fill="#161616"/>
<path d="M895.2 601.499C916.3 581.399 938 561.999 960.2 543.199C961.7 541.999 959.5 539.799 958.1 541.099C935.9 559.899 914.2 579.399 893.1 599.399C891.7 600.699 893.8 602.799 895.2 601.499Z" fill="#161616"/>
<path d="M867.6 560.2C874.4 569 881.5 577.6 888.8 585.9C890.1 587.4 892.2 585.2 890.9 583.8C883.6 575.4 876.5 566.8 869.7 558.1C868.6 556.5 866.5 558.7 867.6 560.2Z" fill="#161616"/>
<path d="M869.8 560.199C885 543.499 902.9 529.799 920.7 516.099C922.2 514.899 920.7 512.299 919.2 513.499C901.1 527.299 883 541.199 867.7 557.999C866.3 559.499 868.5 561.599 869.8 560.199Z" fill="#161616"/>
<path d="M921 516.099C930.2 522.999 938.6 530.699 946.3 539.199C947.6 540.599 949.7 538.499 948.4 537.099C940.5 528.399 931.9 520.599 922.5 513.499C920.9 512.399 919.4 514.999 921 516.099Z" fill="#161616"/>
<path d="M890.6 586.7C895.7 586.5 899.6 584 903.6 581C908.8 577 913.9 572.9 918.9 568.6C929.5 559.7 939.6 550.3 949.3 540.6C950.7 539.2 948.5 537.1 947.2 538.5C938.8 547 930 555.1 921 563C916.6 566.8 912.1 570.5 907.6 574.2C902.7 578.1 897.3 583.6 890.6 583.8C888.7 583.7 888.7 586.7 890.6 586.7Z" fill="#161616"/>
<path opacity="0.11" d="M916.4 503C914 507.5 910.5 514 906.4 521.9C896.2 541.7 891 551.7 889.4 558C887.3 566.2 885.7 580.6 894.2 600.9C881.5 587.4 868.8 573.8 856.1 560.3C876.2 541.2 896.3 522.1 916.4 503Z" fill="#6D6C6C"/>
<path d="M906 535.4C910.8 540.3 915.3 545.5 919.5 550.9C920.7 552.4 922.8 550.3 921.6 548.8C917.4 543.4 912.9 538.2 908.1 533.3C906.8 531.9 904.7 534 906 535.4Z" fill="#E8E8E8"/>
<path d="M907.2 534.999C909.5 533.499 911.9 532.099 914.2 530.599C915.4 529.799 916.7 528.599 918.1 528.199C920 527.499 918.8 527.099 920.3 527.899C922.1 528.799 924.1 532.699 925.4 534.299C927.3 536.699 929.1 538.999 931 541.399C932.2 542.899 934.3 540.799 933.1 539.299C930.7 536.199 928.2 533.099 925.8 529.999C924.6 528.399 922.7 524.599 920.6 524.099C919.1 523.799 917.8 524.799 916.6 525.599C912.9 527.799 909.3 530.199 905.7 532.399C904.1 533.499 905.6 536.099 907.2 534.999Z" fill="#E8E8E8"/>
<path d="M921.3 550.799C925.5 548.999 929.2 546.399 932.4 543.199C933.8 541.799 931.6 539.699 930.3 541.099C927.2 544.099 923.7 546.499 919.8 548.199C918 548.999 919.5 551.599 921.3 550.799Z" fill="#E8E8E8"/>
<path d="M914.5 540.7C915.8 539.4 917 538.1 919 538.4C920.1 538.6 920.5 538.8 921.7 538.6C922.7 538.4 923 537.2 922.6 536.4C921.7 534.9 920.9 537.4 920.9 538.3C920.9 539.1 921.2 540 921.8 540.6C923.3 542.2 925.5 541.8 927.3 541C929.1 540.3 928.3 537.4 926.5 538.1C925.8 538.4 925.1 538.6 924.3 538.7C924 538 924 537.3 924.3 536.6C924.3 535.9 924.4 535.3 924.2 534.6C923.9 533.6 923.1 532.7 922 532.6C918.8 532.2 918.8 536 920 538C920.3 537.3 920.6 536.5 920.9 535.8C920.1 535.9 919.1 535.3 918.3 535.3C917.7 535.3 917 535.5 916.4 535.7C914.8 536.3 913.6 537.5 912.5 538.7C911 540 913.2 542.1 914.5 540.7Z" fill="#E8E8E8"/>
<path d="M913 534.299C914.4 534.399 915.7 534.299 917 533.999C918.9 533.599 918.1 530.699 916.2 531.099C915.1 531.299 914.1 531.399 913 531.299C912.2 531.199 911.5 531.999 911.5 532.799C911.5 533.699 912.2 534.199 913 534.299Z" fill="#E8E8E8"/>
<path d="M890.1 548.7C894.7 554 899.3 559.2 904 564.3C905.3 565.7 907.4 563.6 906.1 562.2C901.4 557.1 896.7 551.9 892.2 546.6C891 545.1 888.9 547.2 890.1 548.7Z" fill="#E8E8E8"/>
<path d="M892.5 549.1C893.5 547.3 894 545.8 896.1 545.7C897.9 545.6 899 547 900.2 548.1C901.9 549.6 903.3 551.4 905 553C906.3 554.2 907.7 555.4 909.2 556.4C910.5 557.3 911.7 557.8 910.3 559.5C909.5 560.5 907.4 560.9 906.2 561.3C904.4 561.9 905.2 564.8 907 564.2C909.7 563.3 914 561.9 914.9 558.7C915.3 557.4 915 556.8 914.1 555.9C912.2 554.2 909.6 553.1 907.7 551.3C904.5 548.4 901.7 544.1 897.6 542.4C893.7 540.9 891.7 544.5 890 547.5C889 549.2 891.6 550.8 892.5 549.1Z" fill="#E8E8E8"/>
<path d="M862 537.499C858.6 538.899 858.8 540.399 854.5 543.199C851 545.499 849.8 545.199 848.4 547.099C846.8 549.199 846.6 551.599 846.6 553.199C845.2 553.199 842.7 553.499 840 554.999C839.2 555.399 834 558.299 832.5 564.599C831.5 568.899 832.8 572.499 833.4 573.799C832 574.799 829.9 576.599 829 579.499C827.9 583.099 829.3 586.399 831.2 589.999C836.4 600.099 841.1 604.299 846.5 612.799C848.1 615.299 850.4 619.199 852.6 624.199C852.7 627.999 852.7 634.199 851.7 641.699C850.2 652.899 847.3 660.999 846.4 663.599C841.9 676.599 834 706.999 833.2 734.899C832.8 749.199 832.4 772.099 845 795.499C849.7 804.299 856.7 816.699 870.9 821.799C873.1 822.599 889.6 828.499 901.1 819.199C905.3 815.799 907.4 811.599 908.6 808.699C908.9 807.199 909.1 804.899 909 802.099C908.6 789.999 901.4 781.299 898.9 777.999C890.2 766.499 887.6 753.699 883.1 731.999C880.3 718.599 880.9 706.999 882.2 684.199C883.1 668.599 884.9 647.499 889.2 622.399C891.3 621.899 894.2 620.899 896.2 618.499C899.2 614.799 897.4 611.399 899.7 604.899C901.4 599.999 902.8 600.899 905.8 594.399C908 589.699 909.9 585.399 908.9 580.399C908.7 579.399 907.4 573.499 903.2 572.099C897.8 570.199 891.6 576.999 890.1 578.699C887 582.099 885.6 585.699 884.8 587.899C881.7 583.899 878.5 579.099 875.6 573.399C874.3 570.799 873.1 568.299 872.1 565.899C872.6 563.699 873.3 560.499 873.8 556.599C874.4 551.399 874.7 548.699 873.9 545.299C873.3 542.999 872.1 537.899 868.2 536.499C866.1 535.699 863.4 536.799 862 537.499Z" fill="white"/>
<path d="M852.5 619.2C847.5 612.2 842.4 605.2 837.5 598.1C832.8 591.3 827.3 581.7 834.1 574.2C835.4 572.8 833.3 570.6 832 572.1C826.7 577.9 827.3 585.8 830.6 592.5C835.6 602.5 843.5 611.6 850 620.7C851 622.3 853.6 620.8 852.5 619.2Z" fill="#161616"/>
<path d="M843.1 587.199C838.3 582.199 834.3 575.399 834.4 568.299C834.5 561.399 839.5 556.199 846.1 555.099C848 554.799 847.2 551.899 845.3 552.199C838.2 553.399 832.5 558.899 831.5 566.099C830.3 574.699 835.2 583.399 841 589.399C842.3 590.799 844.4 588.599 843.1 587.199Z" fill="#161616"/>
<path d="M853.2 578.3C845.5 569.7 844.6 557.1 850.7 547.4C851.7 545.8 849.1 544.3 848.1 545.9C841.2 556.8 842.5 570.9 851 580.4C852.4 581.9 854.5 579.8 853.2 578.3Z" fill="#161616"/>
<path d="M861.3 571.699C858.1 563.899 856.9 555.199 858.9 546.899C860 542.199 866 533.299 870.8 540.499C872.8 543.499 872.1 547.999 871.8 551.399C871.3 557.799 869 564.799 872.3 570.799C873.9 573.599 876.3 575.999 878.1 578.599C880.4 581.799 882.2 585.299 883.9 588.899C884.7 590.699 887.3 589.099 886.5 587.399C884.4 582.799 881.8 578.499 878.7 574.499C876.9 572.099 874.6 569.899 873.8 566.899C873 563.999 873.8 560.799 874.1 557.799C874.9 551.699 877.4 540.299 870.8 536.199C864.9 532.499 858.6 537.999 856.7 543.399C853.3 552.699 854.7 563.599 858.3 572.599C859.1 574.299 862 573.499 861.3 571.699Z" fill="#161616"/>
<path d="M849.7 548.3C850.9 544.8 855.3 543.2 858.6 544.9C860.3 545.8 861.8 543.2 860.1 542.3C855.1 539.6 848.7 542.2 846.8 547.5C846.1 549.3 849 550.1 849.7 548.3Z" fill="#161616"/>
<path d="M888 586.1C889.1 582.9 890.7 580.1 893.1 577.8C894.1 576.9 895.2 576 896.4 575.3C899.2 573.7 900.4 573.7 903.5 574.8C907.1 576.1 907.6 576.9 907.9 580.7C908 581.9 908 583.1 907.9 584.3C907.6 588.1 906.2 591.7 904.4 595C902.3 598.8 899.7 602.3 898.5 606.6C896.7 613.1 896.6 618.4 889.6 621.5C887.8 622.3 889.4 624.9 891.1 624.1C894.1 622.8 896.6 620.8 898.3 618C900.6 614.3 900.4 609.9 901.8 605.9C903.4 601.5 906.5 597.8 908.5 593.6C910.3 589.6 911.2 585.2 910.9 580.8C910.5 574.8 907 569.8 900.4 570.8C892.9 571.9 887.4 578.6 885.1 585.4C884.4 587.1 887.3 587.9 888 586.1Z" fill="#161616"/>
<path d="M888.6 622.199C885.8 640.399 883.5 658.699 881.9 676.999C880.5 693.399 879.6 709.899 881.2 726.399C882.7 741.499 886.5 756.199 893.6 769.599C900.8 783.299 909.7 795.799 905.7 812.099C905.2 813.999 908.1 814.799 908.6 812.899C912 798.799 906.8 787.299 900.1 775.199C892.1 760.899 886.7 746.299 884.6 729.899C882.6 713.499 883.3 696.999 884.6 680.599C886.2 661.399 888.5 642.199 891.5 623.099C891.8 621.099 888.9 620.299 888.6 622.199Z" fill="#161616"/>
<path d="M850.1 619.3C852.1 623.7 851.6 628.6 851.1 633.3C850.5 638.6 849.7 643.9 848.6 649.2C846.8 658.5 844.3 667.7 841.9 676.9C837.2 695 832.7 713.1 832.1 731.8C831.5 750.3 833.9 769.4 840 786.9C845.1 801.5 854.1 815.6 868.6 822.1C882.3 828.2 899.2 825.3 908 812.5C909.1 810.9 906.5 809.4 905.4 811C895.7 825 876.4 824.7 863.4 815.7C849.4 806 843 789.3 839.2 773.4C835 755.8 833.9 737.4 835.9 719.5C837.9 701.9 842.9 684.9 847.2 667.8C849.5 658.6 851.7 649.4 853 640C854.1 632.7 855.6 624.7 852.4 617.8C851.9 616 849.3 617.6 850.1 619.3Z" fill="#161616"/>
<path opacity="0.1" d="M840.9 555.8C840.5 560.8 840.5 567.2 842 574.2C846.1 593.4 858.2 605.5 863.7 610.3C863.9 616 864 624.8 863.7 635.4C862.2 683 852.8 706.3 851.2 728.6C849.7 750.3 854.8 782 886.6 823C882.3 823.3 875.8 823.3 868.9 820.4C862.7 817.8 853 811.8 844.2 791.7C836.2 773.3 827.4 739.6 837.2 701C841.5 684.2 848.2 671 851.6 642.8C852.5 635.3 852.9 629 853.1 624.7C850.9 620.7 847.7 615.2 843.1 609.2C835.6 599.3 830.7 596 829.5 588.9C828.6 583.9 829.8 578.8 832.4 573.8C832.1 572.5 831.2 567.2 834.2 562C836.4 558.4 839.5 556.6 840.9 555.8Z" fill="#6D6C6C"/>
<path opacity="0.11" d="M853.8 632.098C854.5 632.199 852.4 649.599 848.3 684.399C844.6 715.099 842.8 730.399 842.8 731.599C841.5 777.199 859.3 809.399 856.4 810.499C854.3 811.299 844.2 795.099 838.3 775.499C830.2 748.399 833.4 724.899 835.4 711.399C837.1 699.499 837.8 702.799 846.8 662.399C851.3 642.099 853.1 631.999 853.8 632.098Z" fill="#6D6C6C"/>
<path d="M374.3 917.9C373.4 915.5 371.7 912 368.7 908.5C365.4 904.6 362.6 903.2 360.4 901.6C356.5 898.6 355 894.9 348.6 867.2C345.6 854 345.3 852.5 345.8 849.8C347.1 842.8 350.8 840.4 352.7 831.4C353.6 827.1 353.6 824 353.4 818.2C353.1 809.4 352.9 800.4 349.2 790.1C345.9 780.6 342.1 770.1 332.2 765.4C325.3 762.2 318.5 763.3 312.4 764.4C300.1 766.6 297.4 771.2 284.6 776.9C278.2 779.7 259.8 787.9 238 786.6C228.3 786 222.9 783.9 216.8 787.6C210.4 791.6 207.7 799.2 205.7 805C203.2 812.1 202.6 818.3 202.6 822.4C201.3 826.7 199.3 833.2 197 841.2C190.6 864 190.6 868.2 186.2 880.5C181.8 893 179 900.8 172.3 909.7C170.1 912.6 170 912.3 149.7 931.9C139.3 941.9 133.8 947.4 131.3 956.6C130.3 960.2 128.7 965.9 131.6 969.8C132.5 970.9 135.4 974.2 153.1 973.6C161.3 973.3 162.4 972.6 170.8 971.9C186.3 970.6 198.4 971.9 204.5 972.6C210.3 973.2 215.1 974.1 218.4 974.7C221.6 975 226.4 975.6 232 977.1C242.1 979.9 245.2 983 254.2 986.8C259.7 989.1 271 993.8 284.8 993.4C294.2 993.1 301.8 990.6 306.7 988.5C313.9 989.6 319.8 989.1 323.7 988.5C330.5 987.4 335.7 985.2 340 983.3C345.2 981 344.9 980.5 351.5 977.4C363 971.8 364.9 972.8 368.2 969.8C370.6 967.6 372.8 964.1 374.1 949.6C375 941.9 375.5 931.1 374.3 917.9ZM209 945.5C209.8 951 211.4 955.4 209 957.8C205.9 960.8 200.6 956.5 187.2 957.2C185 957.3 183.7 957.5 177.2 958C171.5 958.4 171.7 958.3 168.1 958.6C162.3 959.1 161.8 959.4 159.4 959.2C155.1 958.8 152.9 958.7 151.1 957.1C148.2 954.6 147.7 950 148.3 946.9C149.3 940.7 154.4 938.1 163.5 930.6C167.3 927.5 172.8 922.7 179 916C182.7 911.1 186.3 906 190 900.7C191.7 898.2 193.3 895.8 194.9 893.3C196.4 889.2 198.3 883.5 200.2 876.6C205.2 858.4 205.3 847.1 207 847C209 847 210.7 861.8 211.4 869.9C212.2 880.3 212 888.9 211.6 894.7C212.6 896.6 214 899.8 214.4 904C214.9 908.7 214 912.5 213.3 914.6C207.9 928.1 207.9 938.4 209 945.5Z" fill="white"/>
<path d="M209.5 792.999C196.2 814.599 204.7 839.999 208.5 863.099C209.6 869.899 210.2 876.699 209.9 883.499C209.7 886.699 209.3 889.899 209.7 893.199C210.1 896.199 211.2 898.899 211.9 901.799C213.8 909.299 211.1 916.899 209.6 924.199C208.3 930.499 207 936.799 206.8 943.199C206.4 953.299 208.9 964.099 216.2 971.399C224.3 979.499 236.1 978.199 245.8 983.299C255.9 988.699 265.4 993.199 277 994.299C282.7 994.799 288.6 994.599 294.2 993.599C300.2 992.599 305.8 989.699 311.8 988.699C317.5 987.799 323 989.799 328.7 988.299C335.1 986.699 341.3 983.099 347.3 980.399C353.5 977.599 359.7 974.699 366 971.899C370.1 969.999 373.8 968.299 374.8 963.499C376.1 957.499 375.4 950.399 375.5 944.299C375.7 937.899 376.2 931.499 375.8 925.099C375.6 920.999 375 916.899 373.3 913.199C370.7 907.399 365.2 905.599 361.6 900.799C354.5 890.999 350.9 877.299 348.9 865.499C348.3 861.799 347.9 858.099 347.6 854.399C347.4 850.599 348.7 848.199 350.1 844.899C352.1 840.199 353.4 835.199 354 830.199C355.6 818.599 354.1 806.699 351.4 795.399C349.1 785.799 346 775.099 338.3 768.299C318.1 750.499 291.6 771.399 272.9 780.199C266 783.399 258.8 785.499 251.2 785.499C243.9 785.499 236.7 784.099 229.4 784.599C219.7 785.199 209.6 789.599 206.3 799.299C205.7 801.099 208.6 801.899 209.2 800.099C213.2 788.399 227.1 787.099 237.6 787.699C248.8 788.399 259 789.099 269.6 784.899C287.8 777.699 306.7 759.499 327.8 765.899C339.4 769.399 344.3 780.699 347.3 791.499C350.3 802.299 352.2 813.499 351.6 824.699C351.3 830.199 350.3 835.699 348.5 840.999C347.7 843.399 346.6 845.799 345.4 848.099C344.1 850.699 344.4 852.599 344.6 855.599C345.3 866.399 347.6 876.999 351.5 887.099C353.2 891.499 355.1 895.899 357.4 900.099C359.9 904.499 363.3 906.299 366.8 909.699C374.8 917.299 372.7 930.799 372.4 940.699C372.2 946.999 372 953.299 371.8 959.599C371.7 963.799 370.8 966.199 367.2 968.299C364.3 969.999 361 971.199 357.9 972.499C352.3 975.099 346.6 977.599 341 980.199C334.6 983.099 328.2 986.799 320.9 986.399C316.1 986.199 312.2 985.599 307.5 986.899C301.7 988.599 296.2 990.699 290.2 991.399C278.7 992.799 266.8 990.999 256.4 985.999C252 983.899 247.9 981.099 243.4 979.099C238.7 976.999 233.8 976.499 228.8 975.299C217 972.499 210.7 961.299 209.7 949.899C208.5 936.299 213.7 923.599 215.3 910.299C216.2 903.599 212.7 897.999 212.2 891.399C211.8 884.699 212.9 878.099 212.2 871.299C209.7 846.199 197.2 818.299 211.7 794.599C213.2 792.799 210.6 791.299 209.5 792.999Z" fill="#161616"/>
<path d="M211.4 792.7C228.9 790.1 242.6 804.1 249.9 818.3C256.9 831.7 260.5 846.6 268.2 859.7C274.7 870.7 284.2 879.9 297 882.7C308.3 885.2 320.8 882.8 330.1 875.8C342.6 866.4 348 850.9 350.8 836.1C351.2 834.2 348.3 833.4 347.9 835.3C345.3 848.8 340.7 863.3 329.7 872.3C318.6 881.4 302.2 883.3 289.3 876.8C262.6 863.5 262.4 827.2 245.4 805.8C237 795.2 224.2 787.8 210.4 789.8C208.7 790.1 209.5 793 211.4 792.7Z" fill="#161616"/>
<path d="M317.1 888.1C317.2 888.3 317.3 888.4 317.4 888.6C317.5 888 317.6 887.4 317.6 886.8C317.4 887 317.3 887.1 317.1 887.3C317.7 887.2 318.3 887.1 318.9 887.1C317.2 886.2 316.4 882.4 315.8 880.7C314.9 878.1 314.3 875.3 313.8 872.6C313.5 870.5 312.1 854.8 316.5 856.3C317.8 856.8 318.8 862.2 319.2 863.6C319.9 866.3 320.3 869.1 320.6 871.9C320.9 874.6 320.9 877.3 321 879.9C321 881.1 321.1 882.3 321.1 883.5C321.1 884.1 321.1 884.7 321 885.3C321.2 886 320.9 886.5 320.2 886.8C320.4 884.9 317.4 884.9 317.2 886.8C317 888.8 318.6 890.4 320.7 890.2C323.6 889.9 324 886.7 324 884.4C324.2 879 323.9 873.3 323.1 868C322.5 863.6 321.6 857.3 318.4 853.9C312.5 847.5 310.5 860 310.4 863.4C310.1 868.7 310.8 874 312.2 879C313.1 882 314.4 888.1 317.5 889.7C318.1 890 318.8 890 319.3 889.5C319.5 889.3 319.6 889.2 319.8 889C320.3 888.5 320.4 887.7 320 887.2C319.9 887 319.8 886.9 319.7 886.7C318.7 884.9 316.1 886.4 317.1 888.1Z" fill="#161616"/>
<path d="M293.1 942.3C293.6 958.3 295 974.3 297.3 990.1C297.6 992 300.5 991.2 300.2 989.3C298 973.7 296.6 958 296.1 942.3C296 940.4 293 940.4 293.1 942.3Z" fill="#161616"/>
<path d="M295.2 943C302.3 933 315 928.8 326 925C338.1 920.8 350.4 917.6 363 915.3C364.9 915 364.1 912.1 362.2 912.4C347.8 915 333.6 918.9 319.9 924C309.6 927.9 299.1 932.3 292.5 941.5C291.5 943.1 294.1 944.6 295.2 943Z" fill="#161616"/>
<path d="M295.7 943.599C307.5 949.899 319 954.699 332.6 951.099C345.6 947.599 357.7 940.299 367.9 931.799C369.4 930.599 367.3 928.499 365.8 929.699C356.3 937.599 345.3 944.199 333.5 947.799C320.1 951.899 309 947.499 297.2 941.099C295.5 940.099 294 942.699 295.7 943.599Z" fill="#161616"/>
<path d="M342.3 941.2C343.1 945.1 343.9 949.1 344.7 953C345.1 954.9 348 954.1 347.6 952.2C346.8 948.3 346 944.3 345.2 940.4C344.8 938.5 341.9 939.3 342.3 941.2Z" fill="#161616"/>
<path d="M349 938.399C349.4 942.099 349.7 945.799 350.1 949.499C350.3 951.399 353.3 951.399 353.1 949.499C352.7 945.799 352.4 942.099 352 938.399C351.8 936.499 348.8 936.399 349 938.399Z" fill="#161616"/>
<path d="M212.1 916.7C210.2 922.2 212.1 927.2 218.6 926.1C220.2 925.8 221.6 925.1 223.2 924.6C224.1 924.3 225.4 923.8 226.4 923.9C231.5 924.6 228.6 926.3 229.9 928.1C231.4 930.1 232.3 931.1 235 931.1C238.6 931 245.7 927.6 248.1 932C249 933.8 248.1 938.6 248.1 940.8C248.1 943.4 248.2 946 248.2 948.6C248.4 960 248.7 971.4 249.1 982.7C249.2 984.6 252.2 984.6 252.1 982.7C251.4 965.2 251.1 947.6 251 930C251 929.5 250.7 928.9 250.3 928.7C247 927.2 243.7 926.5 240.1 927C237.6 927.3 236.5 928.3 234.1 926.9C231.8 925.6 232.6 924.8 231.2 923C229.7 921.1 227.5 920.7 225.2 921C223.6 921.2 222.3 921.9 220.8 922.4C220 922.7 219 923.2 218.1 923.2C215.9 923.1 214.3 919.7 215.1 917.6C215.6 915.7 212.7 914.9 212.1 916.7Z" fill="#161616"/>
<path d="M205.5 817.6C205.6 806.1 209.3 785.3 225.7 789.3C227.6 789.8 228.4 786.9 226.5 786.4C219.6 784.7 212.8 787.7 208.5 793.2C203.1 800 202.5 809.2 202.5 817.6C202.5 819.6 205.5 819.6 205.5 817.6Z" fill="#161616"/>
<path d="M202.8 811.3C200.6 815.9 203.7 820.6 206.5 824.4C209.4 828.4 213.8 832 219 830.9C221.9 830.3 223.9 827.7 226.8 827.2C230 826.5 233.1 829.3 236.3 829.2C243.1 828.9 247.2 822.4 252.1 818.8C253.6 817.7 252.2 815.1 250.6 816.2C246.7 819 243.7 823.4 239.2 825.3C234.5 827.3 231.7 823.8 227.2 824.1C222.7 824.4 220.1 829 215.3 827.8C211.3 826.8 203.3 817.6 205.5 812.8C206.2 811.1 203.6 809.5 202.8 811.3Z" fill="#161616"/>
<path d="M203.6 809.499C198.8 830.499 193.2 851.299 186.9 871.799C183.9 881.499 181.1 891.599 176.1 900.599C171.8 908.299 165.9 914.799 159.6 920.899C148.6 931.499 135.9 941.499 129.7 955.899C127.2 961.699 126.5 967.699 132.2 971.799C138.5 976.399 147.8 976.199 155.1 975.499C166.3 974.399 177.4 970.899 188.7 971.799C199.5 972.699 209.8 977.099 220.6 973.899C222.4 973.299 221.7 970.499 219.8 970.999C210.1 973.899 200.6 970.199 190.9 968.999C182.9 967.999 174.9 969.299 167.1 970.599C157.7 972.199 147.1 974.499 137.8 971.199C132 969.199 129.5 964.899 131.6 958.999C133 955.099 135.1 951.399 137.5 948.099C146 935.899 158.4 927.099 168.4 916.199C179.6 903.899 184.7 889.199 189.6 873.499C196 852.599 201.7 831.499 206.6 810.199C207 808.399 204.1 807.599 203.6 809.499Z" fill="#161616"/>
<path d="M203.7 842.699C201.9 861.599 199.9 880.999 190.6 897.999C186.5 905.599 181.2 912.499 175 918.399C169.3 923.799 162.7 928.099 156.8 933.199C152.4 936.999 146.1 942.699 145.7 948.999C145.3 954.699 150.1 959.199 155.2 960.699C163.4 963.199 173.3 960.199 181.7 959.699C191.5 959.199 201.4 959.499 211.2 960.499C213.1 960.699 213.1 957.699 211.2 957.499C202.1 956.499 192.9 956.199 183.7 956.599C179.8 956.799 175.8 957.099 171.9 957.499C167.3 957.999 162.4 959.099 157.8 958.199C152.1 957.099 147.2 952.599 149.6 946.399C151.1 942.699 154.3 939.499 157.2 936.799C162.5 931.799 168.7 927.899 174.1 923.099C184.4 914.199 192.5 902.699 197.6 890.099C203.7 874.999 205.2 858.599 206.8 842.499C206.9 840.799 203.9 840.799 203.7 842.699Z" fill="#161616"/>
<path d="M229.5 927.999C230.4 936.899 231.8 945.599 233.8 954.299C234.2 956.199 237.1 955.399 236.7 953.499C234.8 945.099 233.4 936.599 232.5 927.899C232.3 926.099 229.3 926.099 229.5 927.999Z" fill="#161616"/>
<path d="M254.5 801.7C270.5 814 296.3 821.1 315 810.7C316.7 809.8 315.2 807.2 313.5 808.1C295.7 817.9 271.1 810.7 256.1 799.1C254.4 797.9 252.9 800.5 254.5 801.7Z" fill="#161616"/>
<path d="M205.8 814.5C205.2 807.3 206.6 798.9 211.6 793.4C216.6 788 224.4 788.5 231.2 788.5C243.7 788.7 256.3 790 268.2 785.6C270 784.9 269.2 782 267.4 782.7C252.1 788.4 236.4 783.9 220.7 785.9C207 787.7 201.8 802.1 202.8 814.5C202.9 816.4 205.9 816.5 205.8 814.5Z" fill="#161616"/>
<path d="M206.4 817.399C207.4 810.499 209.6 803.999 213.4 798.099C215.4 794.999 217.5 792.099 221 790.799C224.4 789.499 228.4 789.999 232 789.999C244.1 790.199 256.5 790.599 267.5 784.799C269.2 783.899 267.7 781.299 266 782.199C258.8 785.999 250.9 786.999 242.9 787.099C236.1 787.199 228.8 785.999 222.1 787.299C210.4 789.599 205 806.399 203.5 816.499C203.2 818.399 206.1 819.299 206.4 817.399Z" fill="#161616"/>
<path d="M205.5 814.8C206.2 805.7 207.3 794 216.3 789C221.2 786.3 227.6 786.9 233 786.8C237.7 786.8 242.4 786.9 247.2 786.8C256.3 786.6 265.4 785.9 274.1 782.9C282.4 780 290.1 775.5 297.6 771C299.3 770 297.8 767.4 296.1 768.4C287 773.8 277.7 779.3 267.3 781.7C255.8 784.4 243.9 783.7 232.2 783.8C223.6 783.9 215.3 783.9 209.5 791.2C204.2 797.9 203.4 806.6 202.7 814.8C202.4 816.7 205.4 816.7 205.5 814.8Z" fill="#161616"/>
<path opacity="0.05" d="M273.9 783.9C278.2 787.9 272.6 795.5 276.5 802.3C281.6 811.1 296.3 812.2 307.5 811.7C301.6 813.3 292.6 817 287.6 825.3C278.8 839.9 284.9 864.3 306 881.5C307.9 896.5 309.8 911.6 311.8 926.6C306.2 931.5 300.6 936.4 295 941.3C295.2 958.1 295.3 974.9 295.5 991.7C290.5 993.5 282.7 995.5 273.5 994.3C264.3 993.2 262.2 990 244.6 982.8C228.3 976.1 225.9 977.2 220.5 972.3C210.5 963.4 208.6 950.9 208.4 949.7C207.1 940.5 210.8 939.3 212.6 920.8C213.5 911.2 213.3 903.6 213.1 900.9C212.7 892 211.6 888.7 210.5 878.9C209.1 867.2 209.8 864.8 208.9 853.7C206.7 825.1 200.8 819.9 204.7 805.4C206.3 799.5 208.2 792.1 214.7 788.1C222.8 783 228.7 789 245.7 787.6C262 786.2 269.5 779.6 273.9 783.9Z" fill="#6D6C6C"/>
<path opacity="0.11" d="M218.3 790.699C207.2 792.799 199.5 810.199 204.7 820.599C206.4 823.999 210.3 828.399 215.2 828.999C219.2 829.499 220.2 826.899 226.2 826.399C232.3 825.899 233.4 828.299 238.3 827.399C241.9 826.799 247.2 824.299 248.8 820.099C251.6 812.599 241.4 803.499 237.8 800.199C232.1 795.099 225.7 789.299 218.3 790.699Z" fill="#6D6C6C"/>
<path opacity="0.14" d="M211.5 857.4C213.9 857 219.4 889.9 230.9 922C241.7 951.9 255.4 974.8 266.1 990.2C257.5 985.9 250.2 983.3 245.1 981.8C238.4 979.8 233.5 979 226.7 975.5C221.7 972.9 218 970.1 215.7 968.2C213.5 965.4 210.4 960.8 209.4 954.6C209 952.3 209.1 951.2 209.9 941C211 926.2 211 925.7 211.5 923.2C213 915 214.3 915.1 214.6 909.6C215 904.4 213.9 903.4 212.5 893.3C211.3 884.5 211.1 877.8 210.9 873.4C210.7 863.4 210.5 857.5 211.5 857.4Z" fill="#6D6C6C"/>
</svg>
